<svg id="Layer_1" data-name="Layer 1" xmlns="http://www.w3.org/2000/svg" viewBox="0 0 61.91 81"><defs><style>.cls-1{fill:#262223;}</style></defs><title>icono alimento</title><path class="cls-1" d="M196.4,351.29l-.22,0c-.81.07-1.21-.35-1.16-1.15a5.14,5.14,0,0,0,0-1.11,4,4,0,0,0-7.85-.43,4,4,0,0,0,1,3.86.92.92,0,0,1,0,1.42q-3.56,3.59-7.14,7.14a1,1,0,0,1-.71.28,1.61,1.61,0,0,1-.79-.4,4,4,0,1,0-2.3,7,1,1,0,0,1,1.22,1.23,4,4,0,0,0,3.69,4.41,4,4,0,0,0,3.29-6.73,1,1,0,0,1,0-1.63l6.86-6.85c.61-.61,1-.62,1.67,0a3.9,3.9,0,0,0,2.7,1,4,4,0,1,0-.25-8.06Z" transform="translate(-156.24 -316)"/><path class="cls-1" d="M215.23,340.91c-2-9.73,0-20.87,0-21L216,316H158.4l.74,3.93c0,.11,2.06,11.21,0,21-1.83,8.74-5.69,36.15.35,47.07,3.58,6.48,16.5,8.9,27.53,9h.33c11-.11,23.95-2.53,27.53-9C220.93,377.06,217.06,349.65,215.23,340.91Zm-6.15,43.85c-1.45,2.62-10.22,5.49-21.89,5.59-11.67-.1-20.43-3-21.88-5.58-4.05-7.33-2.4-29.39.34-42.5a65.3,65.3,0,0,0,.58-19.63h41.93a65.58,65.58,0,0,0,.57,19.63C211.48,355.38,213.12,377.44,209.08,384.76Z" transform="translate(-156.24 -316)"/></svg>