<svg id="Layer_1" data-name="Layer 1" xmlns="http://www.w3.org/2000/svg" viewBox="0 0 68.99 83.08"><defs><style>.cls-1{fill:#262223;}</style></defs><title>icono cepillos</title><path class="cls-1" d="M376.29,408.89q-5.39-5.42-10.76-10.85l-5-5h-2.44l-.3.33c-1,1.1-1.75,2.83.38,4.78,1,.9,2,1.9,2.91,2.85l1.44,1.47,3.94,3.9,1.27,1.25-.83.89-2.11-2.11c-2.42-2.42-4.8-4.81-7.2-7.2l-.29-.3a3.55,3.55,0,0,0-2.42-1.43h0a2.56,2.56,0,0,0-1.83.88,2.53,2.53,0,0,0-.82,1.84,3.55,3.55,0,0,0,1.44,2.38l.33.32c2.49,2.5,5,5,7.51,7.5l1.78,1.77-.87.89-2.2-2.22-7.52-7.57a3.41,3.41,0,0,0-2.35-1.27h0a2.49,2.49,0,0,0-1.76.8,2.46,2.46,0,0,0-.81,1.76,3.46,3.46,0,0,0,1.27,2.36l3.36,3.36c1.94,1.95,3.88,3.89,5.84,5.81a3.07,3.07,0,0,0,.62.47l-1,1.06a3.76,3.76,0,0,0-.5-.65c-1.78-1.8-3.57-3.59-5.36-5.39q-2-1.95-3.92-3.92c-1.87-1.89-3.31-1.07-4-.41a2.43,2.43,0,0,0-.84,1.77,3.21,3.21,0,0,0,1.15,2.26c.78.77,1.56,1.56,2.34,2.35q1.51,1.51,3,3c1.24,1.21,2.51,2.4,3.77,3.59l.84.79-.89,1-.47-.44L351.53,420c-2.55-2.55-5.11-5.09-7.64-7.65-.65-.65-2.37-2.39-4.22-.64a2.39,2.39,0,0,0-.87,1.76,3.54,3.54,0,0,0,1.37,2.48l3.25,3.25q1.84,1.84,3.7,3.68c.81.81,1.65,1.6,2.39,2.3l.2.18-.78,1-2.09-2.1c-2.57-2.57-5.06-5.08-7.55-7.59-1.51-1.52-2.9-1.69-4.12-.51a2.47,2.47,0,0,0-.84,1.76,3.53,3.53,0,0,0,1.25,2.37l9,9,.31.31.33.34-1.36,1.58-2-2c-2.62-2.63-5.19-5.22-7.75-7.81a3.48,3.48,0,0,0-2.37-1.22,2.47,2.47,0,0,0-1.78.88c-.64.69-1.42,2.12.48,4l3.15,3.14c1.63,1.64,3.27,3.28,4.93,4.9a17.35,17.35,0,0,0,1.77,1.48l-.92,1.08-2.46-2.47-7.4-7.42A3.15,3.15,0,0,0,327.3,425h0a2.48,2.48,0,0,0-1.78.89c-.51.55-1.48,2,.37,3.88,1,1,2,2,3,3,1.38,1.39,2.76,2.77,4.16,4.14.81.79,1.65,1.53,2.55,2.32l.46.41a11.93,11.93,0,0,0-1,.83l-3.34,3.34q-9.83,9.8-19.6,19.62a7.23,7.23,0,0,0-.2,10.48,7.14,7.14,0,0,0,5.11,2.2h0a7.52,7.52,0,0,0,5.33-2.28c20.27-20.23,37.95-37.92,54.05-54.08a8.33,8.33,0,0,0,2-3.37C379.27,413.67,378.54,411.16,376.29,408.89Zm-4.9,2.48c1.3,1.12,2.09,2,2.13,2.85s-.64,1.94-2.15,3.43c-12.57,12.45-25.28,25.17-37.57,37.48l-14.19,14.2-.21.21a8.2,8.2,0,0,1-1,.95,2.13,2.13,0,0,1-2.87-3.1,13.07,13.07,0,0,1,1-1.09l12.9-12.9L371,411.81A5.34,5.34,0,0,0,371.39,411.37Z" transform="translate(-309.78 -393)"/></svg>