<svg xmlns="http://www.w3.org/2000/svg" viewBox="0 0 35.54 81.11"><defs><style>.cls-1{fill:#262223;}</style></defs><title>Asset 1</title><g id="Layer_2" data-name="Layer 2"><g id="Layer_9" data-name="Layer 9"><path class="cls-1" d="M34.64,77.72a10.44,10.44,0,0,0,.87-5.58c0-.43,0-.85,0-1.27q0-10.68,0-21.36V39.86a15.67,15.67,0,0,0-1.29-6.62.48.48,0,0,1,0,.27L34,32.63a5.26,5.26,0,0,1-.35-.62c-.31-.64-.65-1.26-1-1.84l-.47-.05.18-.17c-2-2.1-4-4.09-4.48-6.82a2.72,2.72,0,0,0,1-2.24V19c0-1.87,0-3.82,0-5.74A3.07,3.07,0,0,0,27.67,11c0-1,0-2,0-3,0-1.53,0-3.07,0-4.6A3.36,3.36,0,0,0,26.12.22L25.35,0H2.44L1.87.12A3,3,0,0,0,0,3.19C0,4,0,4.78,0,5.57s0,1.36,0,2a2.79,2.79,0,0,0,3.1,3.09c1.32,0,2.63,0,4,0H9.12v.17a2.87,2.87,0,0,0-1.29,2.67v.69c0,2.05,0,4.11,0,6.16a3.28,3.28,0,0,0,1.06,2.74,9.94,9.94,0,0,1-2.84,5A15.49,15.49,0,0,0,1.3,39.62V74a6.74,6.74,0,0,0,7.12,7.12H29.51a5.27,5.27,0,0,0,3.15-1h0a10.59,10.59,0,0,0,1.87-2.07l.13-.17-.13-.25ZM23.4,16v2.23h-10V16ZM30,73.9c0,1.38-.34,1.72-1.73,1.72H8.49c-1.34,0-1.69-.35-1.69-1.67V62.85q0-11.6,0-23.2a10.17,10.17,0,0,1,3.13-7.6,15.17,15.17,0,0,0,4.44-8.3h8c.07.19.13.39.18.58a22.4,22.4,0,0,0,1.33,3.55,17.92,17.92,0,0,0,3,4.14A10.62,10.62,0,0,1,30,39.69q0,11.87,0,23.73Z"/></g></g></svg>