<svg id="Layer_1" data-name="Layer 1" xmlns="http://www.w3.org/2000/svg" viewBox="0 0 61.4 80.61"><defs><style>.cls-1{fill:#262223;}</style></defs><title>icono farmacia</title><path class="cls-1" d="M345.15,399a3,3,0,0,1,1.76,3.17c-.07,3.65,0,7.29,0,10.94a1,1,0,0,0,.63,1.06,6.91,6.91,0,0,1,4.1,6.62q0,19.44,0,38.88v1h9.29a9.45,9.45,0,1,1,0,18.89H316.44a7.07,7.07,0,0,1-7.34-7.34q0-25.74,0-51.47a6.9,6.9,0,0,1,4.23-6.68.76.76,0,0,0,.49-.84c0-3.7,0-7.4,0-11.1a3,3,0,0,1,1.75-3.17Zm-31.33,28.67V472.1c0,1.88.91,2.78,2.81,2.78h22a9.54,9.54,0,0,1,8.16-14.21v-33Zm28.31-23.89H318.61v9.66h23.52Zm4.75,19.12V421c0-1.94-.89-2.82-2.83-2.82H316.28a2.29,2.29,0,0,0-2.4,2,22.71,22.71,0,0,0,0,2.74Zm4.69,42.53h-5a4.77,4.77,0,0,0-4.42,4.19,4.53,4.53,0,0,0,3.39,5,47.64,47.64,0,0,0,6,.32Zm4.81,0v9.42c1.71,0,3.36.06,5,0a4.71,4.71,0,0,0,.08-9.39C359.8,465.37,358.12,465.45,356.38,465.45Z" transform="translate(-309.1 -399)"/><path class="cls-1" d="M328,444.18v-4.4a2.38,2.38,0,1,1,4.72,0c0,1.39,0,2.78,0,4.17a1.76,1.76,0,0,0,.07.25h4a5.76,5.76,0,0,1,1.1.05,2.35,2.35,0,0,1-.49,4.66c-1.54,0-3.09,0-4.72,0,0,1.61,0,3.15,0,4.68a2.28,2.28,0,0,1-1.47,2.22,2,2,0,0,1-2.46-.48,3.25,3.25,0,0,1-.75-1.81c-.11-1.48,0-3,0-4.61h-1.24c-1.15,0-2.3,0-3.46,0a2.36,2.36,0,1,1,0-4.71C324.84,444.17,326.36,444.18,328,444.18Z" transform="translate(-309.1 -399)"/></svg>