<svg id="Layer_1" data-name="Layer 1" xmlns="http://www.w3.org/2000/svg" viewBox="0 0 82.75 81"><defs><style>.cls-1{fill:#262223;}</style></defs><title>icono gato</title><path class="cls-1" d="M314,396.65c-.26,6.05.5,13.42-.4,20.76-2.12,17.49-17.1,31.85-34.71,33.29-9.86.81-19.51.24-28.23-5.12-12.47-7.66-19-18.86-19.25-33.48-.21-11.76,0-23.53-.06-35.3,0-2.66.78-4.84,3.25-6.11s4.69-.64,6.85.92c3.75,2.69,7.6,5.25,11.33,7.95a3.17,3.17,0,0,0,3.33.48,49.18,49.18,0,0,1,33.29,0,3,3,0,0,0,3.13-.49c3.87-2.77,7.81-5.44,11.69-8.19,2.13-1.5,4.34-1.93,6.69-.66a5.94,5.94,0,0,1,3.1,5.75C314,382.78,314,389.06,314,396.65Zm-76.25-19.84c0,12.1,0,23.78,0,35.46a32.56,32.56,0,0,0,23.49,31c4.44,1.28,9,1.26,13.51,1.25a32.4,32.4,0,0,0,32.84-32.73q0-16.56,0-33.11c0-.52.19-1.11-.28-1.67-4.26,3-8.49,5.82-12.61,8.83a5.64,5.64,0,0,1-6,.76,42.43,42.43,0,0,0-32.25.09,5.2,5.2,0,0,1-5.45-.65C246.72,383,242.38,380.05,237.73,376.81Z" transform="translate(-231.29 -370)"/><path class="cls-1" d="M272.74,418.94a10.24,10.24,0,0,1,4.86.75c1.75.84,2.26,2.1,1.24,3.66a7.1,7.1,0,0,1-12.22,0c-.92-1.45-.59-2.74,1.05-3.57A10.51,10.51,0,0,1,272.74,418.94Z" transform="translate(-231.29 -370)"/></svg>