<svg id="Layer_2" data-name="Layer 2" xmlns="http://www.w3.org/2000/svg" viewBox="0 0 54.64 54.65"><defs><style>.cls-1{fill:#fff;}</style></defs><title>instagram icono</title><path class="cls-1" d="M-303.4,198.72h-12.66a13.64,13.64,0,0,1-13.31-9.43,15.28,15.28,0,0,1-.73-4.7c0-8.25,0-16.63,0-24.74v-1.61a13.69,13.69,0,0,1,9.41-13.38,15.39,15.39,0,0,1,4.71-.74c8.61-.05,17.05,0,26.41,0a13.84,13.84,0,0,1,13.35,9.34,14.52,14.52,0,0,1,.75,4.89v26.21a13.92,13.92,0,0,1-2.59,8.4,13.75,13.75,0,0,1-11.46,5.78Zm1.51-49.65c-4.77,0-9.4,0-14.09,0a10.15,10.15,0,0,0-3.14.48,8.71,8.71,0,0,0-6,8.65v1.61c0,8.1,0,16.47,0,24.7a10.22,10.22,0,0,0,.47,3.15,8.65,8.65,0,0,0,8.58,6q13.24,0,26.49,0a8.72,8.72,0,0,0,7.44-3.74,8.9,8.9,0,0,0,1.62-5.43V158.33a9.53,9.53,0,0,0-.47-3.22,8.73,8.73,0,0,0-8.64-6Z" transform="translate(330.14 -144.07)"/><path class="cls-1" d="M-302.7,186.92h-.09a14.81,14.81,0,0,1-10.5-4.4,14.66,14.66,0,0,1-4.32-10.5,14.89,14.89,0,0,1,14.82-14.83h.08a14.9,14.9,0,0,1,14.83,14.91h0a14.89,14.89,0,0,1-4.4,10.51A14.7,14.7,0,0,1-302.7,186.92Zm-.09-24.73a9.88,9.88,0,0,0-9.82,9.85,9.7,9.7,0,0,0,2.86,7,9.86,9.86,0,0,0,7,2.92h.06a9.68,9.68,0,0,0,6.89-2.86,9.9,9.9,0,0,0,2.93-7h0a9.88,9.88,0,0,0-9.85-9.88Z" transform="translate(330.14 -144.07)"/><path class="cls-1" d="M-288.06,153a3.66,3.66,0,0,1,3.65,3.66,3.66,3.66,0,0,1-3.64,3.61,3.67,3.67,0,0,1-3.66-3.66A3.68,3.68,0,0,1-288.06,153Z" transform="translate(330.14 -144.07)"/></svg>