<svg id="Layer_1" data-name="Layer 1" xmlns="http://www.w3.org/2000/svg" viewBox="0 0 81 81"><defs><style>.cls-1{fill:#262223;}</style></defs><title>icono juguetes</title><path class="cls-1" d="M204.66,330a40.5,40.5,0,1,0,40.5,40.5A40.55,40.55,0,0,0,204.66,330Zm-33.39,40.5a33.38,33.38,0,0,1,14.37-27.43c2.73,9.55,7.92,33.83-2.88,52.61A33.3,33.3,0,0,1,171.27,370.5Zm17.33,29.27C201.92,377.37,195,349,192,339.59a33.39,33.39,0,0,1,25.64.16c-2.52,7.68-10.69,37,2.41,60.35a33.33,33.33,0,0,1-31.49-.33ZM226,396.15c-10.52-19.44-4.53-44.39-2-52.83a33.36,33.36,0,0,1,2,52.83Z" transform="translate(-164.16 -330)"/></svg>