<svg id="Layer_1" data-name="Layer 1" xmlns="http://www.w3.org/2000/svg" viewBox="0 0 158.33 174.9"><defs><style>.cls-1{fill:#606060;opacity:0.5;}</style></defs><title>lupa</title><path class="cls-1" d="M360,337.31l-32.18-40.79a66.91,66.91,0,1,0-35.76,28.93L323.9,365.8c3.38,4.29,8.93,6.25,15.21,5.37.47-.06.95-.15,1.43-.25a29.5,29.5,0,0,0,12.1-5.81C362.94,357,366.1,345,360,337.31ZM224.15,272.36a47.83,47.83,0,1,1,56.5,37.2A47.88,47.88,0,0,1,224.15,272.36Zm117.1,78.3a11.44,11.44,0,0,1-4.14,2.18L308.86,317A65.53,65.53,0,0,0,316,311.2l28.36,35.95A11.84,11.84,0,0,1,341.25,350.66Z" transform="translate(-204.77 -196.48)"/></svg>