<svg id="Layer_1" data-name="Layer 1" xmlns="http://www.w3.org/2000/svg" xmlns:xlink="http://www.w3.org/1999/xlink" viewBox="0 0 453 261.9"><defs><style>.cls-1{fill:url(#linear-gradient);}.cls-2{fill:url(#linear-gradient-2);}.cls-3{fill:url(#linear-gradient-3);}.cls-4{fill:url(#linear-gradient-4);}.cls-5{fill:url(#linear-gradient-5);}.cls-6{fill:url(#linear-gradient-6);}.cls-7{fill:url(#linear-gradient-7);}.cls-8{fill:url(#linear-gradient-8);}.cls-9{fill:url(#linear-gradient-9);}.cls-10{fill:url(#linear-gradient-10);}.cls-11{fill:url(#linear-gradient-11);}.cls-12{fill:url(#linear-gradient-12);}.cls-13{fill:url(#linear-gradient-13);}.cls-14{fill:url(#linear-gradient-14);}.cls-15{fill:url(#linear-gradient-15);}</style><linearGradient id="linear-gradient" x1="578.91" y1="339.52" x2="578.91" y2="264.79" gradientUnits="userSpaceOnUse"><stop offset="0" stop-color="#ffb355"/><stop offset="1" stop-color="#e90d00"/></linearGradient><linearGradient id="linear-gradient-2" x1="609.76" y1="339.52" x2="609.76" y2="264.79" xlink:href="#linear-gradient"/><linearGradient id="linear-gradient-3" x1="636.86" y1="339.52" x2="636.86" y2="264.79" xlink:href="#linear-gradient"/><linearGradient id="linear-gradient-4" x1="661.04" y1="339.52" x2="661.04" y2="264.79" xlink:href="#linear-gradient"/><linearGradient id="linear-gradient-5" x1="686.22" y1="339.52" x2="686.22" y2="264.79" xlink:href="#linear-gradient"/><linearGradient id="linear-gradient-6" x1="713.3" y1="339.52" x2="713.3" y2="264.79" xlink:href="#linear-gradient"/><linearGradient id="linear-gradient-7" x1="739.03" y1="339.52" x2="739.03" y2="264.79" xlink:href="#linear-gradient"/><linearGradient id="linear-gradient-8" x1="763.41" y1="339.52" x2="763.41" y2="264.79" xlink:href="#linear-gradient"/><linearGradient id="linear-gradient-9" x1="789.15" y1="339.52" x2="789.15" y2="264.79" xlink:href="#linear-gradient"/><linearGradient id="linear-gradient-10" x1="816.91" y1="339.52" x2="816.91" y2="264.79" xlink:href="#linear-gradient"/><linearGradient id="linear-gradient-11" x1="337.36" y1="426.21" x2="635.97" y2="127.6" xlink:href="#linear-gradient"/><linearGradient id="linear-gradient-12" x1="339.87" y1="293.9" x2="523.18" y2="110.6" xlink:href="#linear-gradient"/><linearGradient id="linear-gradient-13" x1="454.73" y1="408.76" x2="638.04" y2="225.46" xlink:href="#linear-gradient"/><linearGradient id="linear-gradient-14" x1="397.27" y1="351.3" x2="580.58" y2="168" xlink:href="#linear-gradient"/><linearGradient id="linear-gradient-15" x1="429.83" y1="431.03" x2="648.82" y2="168.98" xlink:href="#linear-gradient"/></defs><title>madagaskar logo a color</title><path class="cls-1" d="M567.1,283.94l5.09-.33a1.81,1.81,0,0,1,.91.2,2.27,2.27,0,0,1,.68,1.08q.32.83,1.72,5.59,1.57,5.37,1.78,5.67a1.41,1.41,0,0,0,1.2.54,1.26,1.26,0,0,0,1.07-.5s.79-2,2.36-6,2.36-6,2.36-6a1.34,1.34,0,0,1,.58-.46,1.94,1.94,0,0,1,.79-.12c.35,0,1.67.08,3.93.25,3,.19,4.73.32,5.17.39a1.75,1.75,0,0,1,1,.43,1.3,1.3,0,0,1,.34,1c0,.63-.16,2.45-.46,5.46q-.17,2-1.37,14.4c-.6,6.32-1,9.61-1.07,9.89a1.61,1.61,0,0,1-.54.58,2.11,2.11,0,0,1-1,.17l-2.65-.09a25,25,0,0,1-3.31-.27,1.26,1.26,0,0,1-.91-.72,16.89,16.89,0,0,1-.21-3.89v-3.44l-.41-.41a1.26,1.26,0,0,0-.83-.5.37.37,0,0,1-.13,0l-.12,0a1.25,1.25,0,0,0-.93.52,14.77,14.77,0,0,0-1.3,2.17c-.89,1.55-1.34,2.33-1.37,2.36a1.31,1.31,0,0,1-1,.37,1.39,1.39,0,0,1-.42,0c-.49-.16-1-.84-1.65-2a3,3,0,0,0-1-1.37,1.61,1.61,0,0,0-.74-.17,1.3,1.3,0,0,0-1.16.58,10.85,10.85,0,0,0-.25,3.11l-.08,2.77-.33.37a1.49,1.49,0,0,1-.75.42c-.16,0-1.29.09-3.39.2l-2.28.09a3,3,0,0,1-1.11-.17l-.09,0a1.28,1.28,0,0,1-.58-.91q-.24-1-1-9.06a3.06,3.06,0,0,1,0-.42q-.71-7.6-1.45-14.86c-.27-2.78-.41-4.42-.41-4.92a1.63,1.63,0,0,1,.12-.7,1.25,1.25,0,0,1,.93-.71C563.24,284.27,564.67,284.13,567.1,283.94Z" transform="translate(-375 -138)"/><path class="cls-2" d="M605,283.77l.37-.29,2.32.09a35.34,35.34,0,0,1,6.09.45,3.51,3.51,0,0,1,.62,1.1c.24.59.81,2.16,1.69,4.7q1.5,4.33,4.89,14,3.46,9.85,3.47,10.43a1.19,1.19,0,0,1-.7,1.12c-.08,0-1.28.15-3.58.29s-3.83.21-4.57.21a1.24,1.24,0,0,1-.75-.29,1.16,1.16,0,0,1-.45-.52c-.11-.24-.32-.82-.62-1.76a7.4,7.4,0,0,0-1-2.28,14.81,14.81,0,0,0-3.43-.37l-2.53-.08a1.76,1.76,0,0,0-1.53.54,14.25,14.25,0,0,0-.74,2.31,20.91,20.91,0,0,1-.67,2.32,1,1,0,0,1-.53.46,1.87,1.87,0,0,1-.67.08c-.47,0-1.36-.06-2.69-.17-2.06-.16-3.28-.27-3.64-.33a1.48,1.48,0,0,1-.87-.41,1.09,1.09,0,0,1-.37-.83q0-.45,3.93-12.83c.31-.94.72-2.25,1.24-3.93q4.4-13.65,4.64-13.95Zm2.11,18.3a1.5,1.5,0,0,0,.31,1.05,1.4,1.4,0,0,0,1,.31h.24a1.55,1.55,0,0,0,1.12-.41,1.44,1.44,0,0,0,.33-.91,3.47,3.47,0,0,0-.25-1.12c-.27-.75-.7-1.12-1.28-1.12a1.29,1.29,0,0,0-.74.25A2.44,2.44,0,0,0,607.09,302.07Z" transform="translate(-375 -138)"/><path class="cls-3" d="M630.28,283.67l.33,0h.71l.91,0,1,0a19.14,19.14,0,0,1,8.61,1.86,12.76,12.76,0,0,1,6.79,7.87,15.54,15.54,0,0,1,.7,4.55,13.93,13.93,0,0,1-.7,4.43,17.31,17.31,0,0,1-2.22,4.3,20.41,20.41,0,0,1-3.37,3.81,23.36,23.36,0,0,1-7,4.09,22.05,22.05,0,0,1-7.84,1.54,6.64,6.64,0,0,1-1.49-.11.92.92,0,0,1-.58-.52q-.08-.17-1-15-.71-12.37-.7-14.11c0-.85.11-1.37.33-1.53a8.78,8.78,0,0,1,2.15-.6C628.13,284,629.26,283.78,630.28,283.67ZM638,300.18a5.47,5.47,0,0,0-1-3.29,3.62,3.62,0,0,0-2.71-1.51,1.36,1.36,0,0,0-1.08.37l-.45.42,0,4.55v2.9a5.08,5.08,0,0,0,.2,1.94,1.16,1.16,0,0,0,1,.5,1.78,1.78,0,0,0,.82-.21,5.1,5.1,0,0,0,2.3-2.25A6.73,6.73,0,0,0,638,300.18Z" transform="translate(-375 -138)"/><path class="cls-4" d="M656.26,283.77l.37-.29,2.32.09A35.14,35.14,0,0,1,665,284a3.32,3.32,0,0,1,.62,1.1c.25.59.81,2.16,1.7,4.7q1.49,4.33,4.88,14,3.48,9.85,3.48,10.43a1.2,1.2,0,0,1-.71,1.12c-.08,0-1.27.15-3.58.29s-3.82.21-4.57.21a1.2,1.2,0,0,1-.74-.29,1.12,1.12,0,0,1-.46-.52c-.11-.24-.32-.82-.62-1.76a7.51,7.51,0,0,0-1-2.28,15,15,0,0,0-3.44-.37l-2.52-.08a1.74,1.74,0,0,0-1.53.54,13,13,0,0,0-.75,2.31c-.36,1.38-.58,2.16-.66,2.32a1.08,1.08,0,0,1-.54.46,1.84,1.84,0,0,1-.66.08c-.47,0-1.37-.06-2.69-.17-2.07-.16-3.28-.27-3.64-.33a1.48,1.48,0,0,1-.87-.41,1.06,1.06,0,0,1-.37-.83q0-.45,3.93-12.83c.3-.94.71-2.25,1.24-3.93q4.38-13.65,4.63-13.95Zm2.11,18.3a1.45,1.45,0,0,0,.31,1.05,1.36,1.36,0,0,0,1,.31h.25a1.57,1.57,0,0,0,1.12-.41,1.44,1.44,0,0,0,.33-.91,3.47,3.47,0,0,0-.25-1.12c-.28-.75-.7-1.12-1.28-1.12a1.32,1.32,0,0,0-.75.25A2.41,2.41,0,0,0,658.37,302.07Z" transform="translate(-375 -138)"/><path class="cls-5" d="M685.81,283.75a8.39,8.39,0,0,1,1.41-.12,11,11,0,0,1,4.3.87,9.31,9.31,0,0,1,5.5,6,3.32,3.32,0,0,1,.29,1.16,1.33,1.33,0,0,1-.24.74c-.25.39-1.18.62-2.78.71l-1.82.08-.74-.7a4.5,4.5,0,0,0-3.11-1.25,4.31,4.31,0,0,0-1.61.25,4.81,4.81,0,0,0-2,1.58,7.2,7.2,0,0,0-1.32,2.6,8.29,8.29,0,0,0-.21,2.28,9.26,9.26,0,0,0,.21,2.36,7.59,7.59,0,0,0,1.18,2.63,5.71,5.71,0,0,0,1.92,1.8,3.33,3.33,0,0,0,1.54.37,3.68,3.68,0,0,0,1.57-.33,2,2,0,0,0,.83-.54,1.74,1.74,0,0,0,.2-.95c0-.14,0-.51-.08-1.12s-.08-1.1-.08-1.16a2.05,2.05,0,0,1,.16-.78,1.13,1.13,0,0,1,.56-.61,4,4,0,0,1,1.26-.14c.67,0,1.24,0,1.74,0a13.37,13.37,0,0,1,2.86.29,1.25,1.25,0,0,1,.6,1c.07.52.1,2,.1,4.51v1.65a17.87,17.87,0,0,1-.14,3,4.26,4.26,0,0,1-1,1.45,13.35,13.35,0,0,1-3.7,2.9,14.3,14.3,0,0,1-4.53,1.57,12.21,12.21,0,0,1-2.07.17,11.88,11.88,0,0,1-5-1.08,10.41,10.41,0,0,1-3.89-3q-3.43-4.26-3.43-11.63a19.16,19.16,0,0,1,2.89-10.8A12.44,12.44,0,0,1,685.81,283.75Z" transform="translate(-375 -138)"/><path class="cls-6" d="M708.52,283.77l.37-.29,2.32.09a35.14,35.14,0,0,1,6.08.45,3.32,3.32,0,0,1,.62,1.1q.38.88,1.7,4.7,1.49,4.33,4.88,14,3.48,9.85,3.48,10.43a1.2,1.2,0,0,1-.71,1.12c-.08,0-1.27.15-3.58.29s-3.82.21-4.57.21a1.2,1.2,0,0,1-.74-.29,1.12,1.12,0,0,1-.46-.52c-.11-.24-.32-.82-.62-1.76a7.51,7.51,0,0,0-1-2.28,15,15,0,0,0-3.44-.37l-2.52-.08a1.76,1.76,0,0,0-1.53.54,14,14,0,0,0-.75,2.31c-.36,1.38-.58,2.16-.66,2.32a1.08,1.08,0,0,1-.54.46,1.84,1.84,0,0,1-.66.08c-.47,0-1.37-.06-2.69-.17-2.07-.16-3.28-.27-3.64-.33a1.48,1.48,0,0,1-.87-.41,1.06,1.06,0,0,1-.37-.83q0-.45,3.93-12.83c.3-.94.71-2.25,1.24-3.93q4.38-13.65,4.63-13.95Zm2.11,18.3a1.45,1.45,0,0,0,.31,1.05,1.37,1.37,0,0,0,1,.31h.25a1.57,1.57,0,0,0,1.12-.41,1.44,1.44,0,0,0,.33-.91,3.47,3.47,0,0,0-.25-1.12c-.28-.75-.7-1.12-1.28-1.12a1.32,1.32,0,0,0-.75.25A2.41,2.41,0,0,0,710.63,302.07Z" transform="translate(-375 -138)"/><path class="cls-7" d="M737.54,283.73a11.17,11.17,0,0,1,1.24-.08A12.74,12.74,0,0,1,742,284a11.32,11.32,0,0,1,5.55,3.1A14.73,14.73,0,0,1,749,288.9a8.76,8.76,0,0,1,1,1.7,1.39,1.39,0,0,1,0,.42,1.72,1.72,0,0,1-.54,1.24,25,25,0,0,1-3,1.59,17.71,17.71,0,0,1-2.91,1.3c-.5,0-1.09-.4-1.78-1.2a7.52,7.52,0,0,0-2.11-1.82,1.74,1.74,0,0,0-.79-.2.72.72,0,0,0-.54.2.91.91,0,0,0-.25.71,5.64,5.64,0,0,0,1.16,2.85,25.54,25.54,0,0,0,3,3.35,43.45,43.45,0,0,1,3.19,3.56,10.56,10.56,0,0,1,1.41,2.61,8,8,0,0,1,.37,2.48v.79a7,7,0,0,1-.66,3.14,7.15,7.15,0,0,1-3.17,3.29,10.25,10.25,0,0,1-5,1.18h-.54a9.14,9.14,0,0,1-8.48-5.67,5.85,5.85,0,0,1-.58-2.11,1.78,1.78,0,0,1,0-.41,1.39,1.39,0,0,1,.6-.79,12.74,12.74,0,0,1,1.93-1,7.87,7.87,0,0,1,2.11-.74h.12a2,2,0,0,1,1.53,1.28c.75,1.52,1.6,2.27,2.57,2.27a1.28,1.28,0,0,0,.83-.45,1.25,1.25,0,0,0,.45-.79,1.76,1.76,0,0,0-.33-.82,5,5,0,0,0-1-1c-.44-.38-1.52-1.27-3.23-2.65a25.85,25.85,0,0,1-4.47-4.38,9.41,9.41,0,0,1-2-5.76,8,8,0,0,1,.75-3.39,9.92,9.92,0,0,1,3.43-3.85A12.84,12.84,0,0,1,737.54,283.73Z" transform="translate(-375 -138)"/><path class="cls-8" d="M752.67,283.92l.37-.37,4.64.08c3.2.05,4.89.09,5.09.12a1.38,1.38,0,0,1,.78.46l.37.37v2.48c0,.69.07,1,.21,1a1.33,1.33,0,0,0,.33-.21c.55-.44,1.27-1,2.15-1.65s1.36-1,1.6-1.12a1.37,1.37,0,0,1,.72-.21,1.3,1.3,0,0,1,.81.27c.23.18,1.12,1,2.67,2.42a16.59,16.59,0,0,1,2,1.95,1.22,1.22,0,0,1,0,1.2q-.2.28-4.22,4.47t-4,4.51c0,.11.23.36.7.74s1.63,1.28,3.48,2.69c2.81,2.15,4.23,3.29,4.26,3.4a1.33,1.33,0,0,1,.12.7,17.71,17.71,0,0,1-1.9,3.72c-1.13,2-1.84,3.12-2.11,3.48a1.39,1.39,0,0,1-1,.41.85.85,0,0,1-.33,0,21.94,21.94,0,0,1-3.1-2.54c-1.88-1.67-2.83-2.51-2.86-2.51-.33,0-.49.38-.49,1.12,0,.41,0,1.26-.09,2.52a7.36,7.36,0,0,1-.33,2.12,1.36,1.36,0,0,1-.95.55,29.05,29.05,0,0,1-3.35.11,26.71,26.71,0,0,1-3.25-.11,1.15,1.15,0,0,1-.85-.64,31.56,31.56,0,0,1-.41-4.47q-1.41-24.62-1.41-26.19A1.37,1.37,0,0,1,752.67,283.92Z" transform="translate(-375 -138)"/><path class="cls-9" d="M784.37,283.77l.37-.29,2.32.09a35.34,35.34,0,0,1,6.09.45,3.51,3.51,0,0,1,.62,1.1c.24.59.81,2.16,1.69,4.7q1.5,4.33,4.89,14,3.46,9.85,3.47,10.43a1.19,1.19,0,0,1-.7,1.12c-.08,0-1.28.15-3.58.29s-3.83.21-4.57.21a1.24,1.24,0,0,1-.75-.29,1.16,1.16,0,0,1-.45-.52c-.11-.24-.32-.82-.62-1.76a7.14,7.14,0,0,0-1-2.28,14.81,14.81,0,0,0-3.43-.37l-2.53-.08a1.76,1.76,0,0,0-1.53.54,14.25,14.25,0,0,0-.74,2.31c-.36,1.38-.58,2.16-.66,2.32a1.08,1.08,0,0,1-.54.46,1.84,1.84,0,0,1-.66.08c-.47,0-1.37-.06-2.7-.17-2.06-.16-3.28-.27-3.64-.33a1.48,1.48,0,0,1-.87-.41,1.09,1.09,0,0,1-.37-.83q0-.45,3.93-12.83c.31-.94.72-2.25,1.24-3.93q4.4-13.65,4.64-13.95Zm2.11,18.3a1.5,1.5,0,0,0,.31,1.05,1.4,1.4,0,0,0,1,.31h.25a1.54,1.54,0,0,0,1.11-.41,1.44,1.44,0,0,0,.33-.91,3.69,3.69,0,0,0-.24-1.12c-.28-.75-.71-1.12-1.29-1.12a1.29,1.29,0,0,0-.74.25A2.44,2.44,0,0,0,786.48,302.07Z" transform="translate(-375 -138)"/><path class="cls-10" d="M807.6,284l.41-.37,2.28.08a51.56,51.56,0,0,1,8,.75,20.42,20.42,0,0,1,4.52,1.36,11,11,0,0,1,2.4,1.68,7.92,7.92,0,0,1,1.69,2.05,10.94,10.94,0,0,1,1.12,5.21,10.46,10.46,0,0,1-.54,3.56,9.14,9.14,0,0,1-4.8,4.84,4.13,4.13,0,0,0-1.1.71,1,1,0,0,0-.26.7c0,.27.35.8,1.07,1.57s1.49,1.57,2.15,2.24a6,6,0,0,1,1.25,1.49,1.45,1.45,0,0,1,.08.33,1.35,1.35,0,0,1-.54.87,28.26,28.26,0,0,1-2.24,1.73,9.71,9.71,0,0,1-2.89,1.74,1,1,0,0,1-.71-.33,14.54,14.54,0,0,1-1-1.24c-.74-1-1.34-1.53-1.78-1.53a1.27,1.27,0,0,0-.87.45,1.32,1.32,0,0,0-.25.91v1l0,1.61-.66.66-4.09.05h-2a8.82,8.82,0,0,1-2.4-.17.49.49,0,0,1-.17-.06c-.08,0-.13-.08-.14-.11l-.11-.16a.67.67,0,0,1-.1-.29c0-.11,0-.27,0-.48s0-.46,0-.76q0-1.5.62-14.36l.74-15.4Zm8.77,7.62A1,1,0,0,0,815,292a6.41,6.41,0,0,0-.28,2.48l-.05,2.23.38.34a1.11,1.11,0,0,0,.82.33,2.06,2.06,0,0,0,1.58-1,3.25,3.25,0,0,0,.74-2A2.59,2.59,0,0,0,816.37,291.62Z" transform="translate(-375 -138)"/><path class="cls-11" d="M521.3,246.24a30.76,30.76,0,0,0-11.54-2.73,7,7,0,0,0-3.19,5.75c0,3.93,3.46,7.11,7.73,7.11s7.74-3.18,7.74-7.11A6.61,6.61,0,0,0,521.3,246.24Zm-6.63,1.33a1.36,1.36,0,1,1,1.47-1.36A1.42,1.42,0,0,1,514.67,247.57Zm3.68,3.38a2,2,0,1,1,2.21-2A2.13,2.13,0,0,1,518.35,251Z" transform="translate(-375 -138)"/><path class="cls-12" d="M458.32,199.43a58.78,58.78,0,0,0,8.33-4.55,13.22,13.22,0,0,1-1-5.42c0-3.05-2.35-4.6-4.83-6.24a24.55,24.55,0,0,1-2.36-1.67,5.34,5.34,0,0,1-2.2-3.73,8.32,8.32,0,0,0-1.74-3.89c-2.82-4-11.92-8.07-14.29-8.12,0,1.31,1.5,4.86,2.26,6.64.43,1,.83,1.93,1.13,2.74,1,2.75.55,8.9.08,14.84-.22,2.78-.43,5.4-.43,7.19,0,3.9.42,4.07,2.73,5l.87.37a26.14,26.14,0,0,1,5.84,4.06C452.81,204.19,453.83,201.54,458.32,199.43Z" transform="translate(-375 -138)"/><path class="cls-13" d="M515.24,357.06c-12.27,7.88-26.93,12.37-43.62,13.34l.06.7a11.49,11.49,0,0,1,5.07,5.19,1.6,1.6,0,0,1,1-.47c33.59-3.6,52.15-18.87,61.81-31.06s12.6-23.84,13-25.47l-1-14.09a101.12,101.12,0,0,1-11,25.56A81,81,0,0,1,515.24,357.06Z" transform="translate(-375 -138)"/><path class="cls-14" d="M635.75,190.6a133.6,133.6,0,0,0-25.82,1.86c-3.54.53-6.89,1-10.55,1.33a57.49,57.49,0,0,1-9,.12c-2.63-.15-3.25-.18-5.84,1.46-2,1.29-2.82,3.9-3.67,6.66-1,3.2-2,6.5-5,8.42-5.82,3.7-15.73,3.74-23,.08-9.77-4.88-5.76-16.1-4.45-19.78,1.5-4.19,1.54-12.51,1.57-18.59,0-2.76,0-5.15.17-6.62.46-4.6,6.46-8.22,10.43-10.62.68-.41,1.27-.77,1.7-1.06,1.5-1,4.21-4.48,4-7.56-.12-2-1.38-3.52-3.85-4.75-8.88-4.44-15.32-4.68-23.75-.89-8.2,3.69-8.11,8.28-7.33,11.41a8.26,8.26,0,0,0,1.83,2.75c2.09,2.48,4.95,5.87,3.18,12.22-2.29,8.27-5.46,13.4-12.13,22.45-5.78,7.84-14.62,9-24.91,3.19-7.44-4.19-6.59-11-5.69-18.12.11-.86.22-1.74.32-2.64.75-6.75,4.86-9.92,8.48-12.72a36.54,36.54,0,0,0,3.4-2.85c4.42-4.42,5.06-7.91,2.28-12.42-1.29-2.09-3.91-3.58-7.21-4.08-5.5-.86-11.49,1.1-16.43,5.36-2.88,2.5-4.38,5.1-4.44,7.74a9.3,9.3,0,0,0,2.66,6.32c.84.76,4.62,4.35,3.37,7.48-.16.4-.45,1.18-.8,2.16-1.63,4.49-5,13.83-8.45,19.54-4.52,7.53-9.72,10.38-17.14,13.87-4.1,1.93-4,3.72-3.73,6.68a13,13,0,0,1-.47,5.67c-2.11,5.8-11,14.66-18.87,17-1.4.41-2.56.73-3.53,1-4.37,1.21-4.42,1.25-5.58,3.28-1.3,2.27-1.75,9.46-1.17,18.75.52,8.3-12.8,27.83-21.92,32.16l-2.09,1c-7.83,3.66-15.92,7.45-16.65,13.3a56.41,56.41,0,0,0-.33,5.89c-.09,5.15-.19,10-4.36,13.42-3.77,3.09-4.36,7.43-4.71,10-.07.53-.14,1-.22,1.38s-.19.82-.33,1.32c-1.11,4.07-1.19,6.45,1.56,7.36,3.31,1.1,8,1.26,18.52-1.95a1.61,1.61,0,0,1,1.28-.4,72,72,0,0,0,10.48-4.41c8.09-4.16,14.18-9.31,19.55-13.86,5.11-4.33,8.11-6.72,13.39-13.27.25-.31-1.37,9.14-8.13,16.17-4.75,4.94-11.74,9.94-20.15,14.26a76.24,76.24,0,0,1-8.45,3.74c2.66,1.52,7,3.26,11.39,2,3.8-1.09,5.63-3.66,7.94-6.91a33.26,33.26,0,0,1,8.92-9.3c6-4,12-5.46,18.25-7a102.72,102.72,0,0,0,10.58-3L465,315.1c4.73-1.78,5.18-1.88,8.61-.56.61.24,1.38.53,2.33.86,3.61,1.27,13.28,3.05,24,.75,13.35-2.86,23.67-10.87,30.7-23.83-.11-1.91-.42-3.73-.42-3.73a4.49,4.49,0,0,1,2.29-5c3.2-1.82,6.85-3.65,6.85-2.28s-4.72,15.19-5.56,16.5a1.21,1.21,0,0,1-.71.59c-7.41,12.36-18.25,20.34-31.57,23.19-11.42,2.45-21.83.51-25.73-.86-1-.34-1.79-.65-2.42-.89a6,6,0,0,0-2.46-.68,8.84,8.84,0,0,0-2.1.58c3.15,1.56,6.17,2,6.52,5.71s.3,28.62-4.39,39.76c6.07.55,24.64.54,46-15.73a83.18,83.18,0,0,0,23.32-27.35c5-9.43,8.31-26.46,7.63-29-2.11-7.84.79-12.07,3.35-15.8,1.61-2.34,3.13-4.56,3.45-7.63a37,37,0,0,0,.08-6.68c-.2-3.29-.34-5.67,3-9.71,2.81-3.37,2.6-9.52,2.22-13A35.06,35.06,0,0,1,547.83,244a1.59,1.59,0,0,1-1.8-1.46c-.07-.87-.46-1.72,1.82-2.63,6.29-2.52,12.31-3.74,13.71-5.49,2.37-3,8.52-2.74,11.65-2.74s5.54-1.52,7.28-4.66c2.2-4,9.25-3,16.71-2,2.41.32,4.7.63,6.71.75,3.79.22,6-2.84,9.37-7.86a47.47,47.47,0,0,1,6.8-8.62c1.81-1.69,4.57-3.79,7.49-6,3.3-2.5,6.71-5.08,9.21-7.42,3.5-3.28,3.28-4.35,3.28-4.36S639.56,190.7,635.75,190.6ZM478.31,327.35a1.62,1.62,0,0,1,2.15-1.52c2.23.77,5.37,2.14,6,3.87.91,2.74-2.74.92-6.4,8.68,0,0-2.28,4.8-2.28,1.49C477.73,337.29,478.28,330.91,478.31,327.35Zm11.3,10.58c-.8,2.77-2.73,17.2-2.43,22.34a1.6,1.6,0,0,1-1.56,1.69l-8.52.32a1.61,1.61,0,0,1-1.58-2.14c.93-2.69,2.36-7.16,2.55-9.65a1.57,1.57,0,0,1,.23-.7c1.26-2.1,7.83-13,9.48-14.61C489.61,333.36,490.52,334.73,489.61,337.93Zm-60.08-29.47a56.9,56.9,0,0,1-8.68,5.48c-3.19,1.37-8.9-.23-7.08-3.42a6.45,6.45,0,0,0,3.43-.69c1.83-.91,2.74-1.83,6.39-5s4.8-3.89,3.43-6.17c0,0,2.29-1.83,3.66.46S432.73,306.18,429.53,308.46ZM484.58,216c-9.59,5-14.62,13.71-19.19,23.76s1.83,13.7-10.05,18.73-21.92,17.36-29.23,26-16,11.87-11.42,6.85,20.1-20.56,23.75-32.89,4.11-12.79,11-16.9,22.25-23.84,23.75-31.07c2.28-11,13.25-4.57,13.25-4.57C493.26,210.47,487.92,214.2,484.58,216Zm30.15,83.15c-.91,3.19-.91,7.76-3.65,9.59s-3.66,1.83-3.66,0,.46-5,0-7.31c0,0-1.37-4.57,2.74-5S515.65,295.9,514.73,299.1Zm.46-16.45c-.46,4.11-4.57,10.05-7.77,11.42s-2.28-4.57-2.28-4.57a61.54,61.54,0,0,1,.46-6.85c.45-3.66,2.74-3.2,5.93-3.66S515.65,278.54,515.19,282.65ZM523,301.84c-4.11,4.11-5.53,4.63-5,0,.46-4.12,0-5.49,0-5.49a3.58,3.58,0,0,1,1.83-3.65c3.16-1.9,5-3.65,6.39-3.2S527.07,297.72,523,301.84Zm4.57-17.36c-.45,1.82-5,3.19-7.31,4.11s-1.82-4.57-1.82-8.22,3.65-4.57,5.94-5.94,2.74-1.37,3.19.45a40,40,0,0,1,.46,6.4A14.54,14.54,0,0,1,527.52,284.48Zm-1.37-33.81c-1.37,1.83-.91,3.2-4.11,4.11s-1.37,3.2-3.65,3.2-8.23,2.28-17.36-6.85c0,0-1.83-1.83-3.66-.92s-1.37,3.2-4.11,2.29c0,0-1.37-1.37,2.74-3.66s4.57-1.37,6.85-3.65,5.49-3.2,10-2.28a38.68,38.68,0,0,1,11,3.65c4.26,1.94,5.58,1.45,7.5.18a15.16,15.16,0,0,1,2.78-1.78c-1.17.65-2,1.28-2.78,1.78a2,2,0,0,0-.42.51c-.46.91,0,3.19-.91,2.74S527.52,248.84,526.15,250.67Zm12.34,24.67c-1.37,2.28-6.86,4.57-7.77,3.2s-.91-11,0-11.88a13.27,13.27,0,0,1,2.74-1.83s3.2-1.82,4.57-1.37,1.37,2.29,1.37,3.2S539.86,273.06,538.49,275.34Zm-18.75,60.3c-4-.39-.65-2.71-.08-3.14l.16-.13c10.32-9.74,4.66-7.92,8.16-15.46.74-1.59,11.6-7.22,11.88-5.48C539.86,311.43,533.92,337,519.74,335.64Zm28.34-71.72c.46,4.11,1.37,7.77-.91,8.22s-3.2.92-4.11-2.28a60.07,60.07,0,0,1-1.38-5.94s-.45-3.2,2.29-3.66S547.62,259.81,548.08,263.92Z" transform="translate(-375 -138)"/><path class="cls-15" d="M468.73,374.46a6,6,0,0,0-1.58-.06c-4.23.36-8.21,5-9.29,11.23a16,16,0,0,0,1.1,9.62c1.24,2.56,3.14,4.18,5.35,4.56s4.55-.49,6.57-2.48a16,16,0,0,0,4.3-8.68C476.4,381.66,473.51,375.3,468.73,374.46Zm4,8.38c0,.26-.2,1-.48,2.2q-.17.81-1.31,5.78c-.58,2.54-.89,3.86-1,4a.55.55,0,0,1-.21.2.54.54,0,0,1-.35,0l-.89-.16a7.12,7.12,0,0,1-1.11-.27.47.47,0,0,1-.27-.34,8.43,8.43,0,0,1,.16-1.59l.2-1.4-.11-.19a.43.43,0,0,0-.26-.24h0l0,0a.4.4,0,0,0-.34.17,5.56,5.56,0,0,0-.57.82c-.39.58-.6.88-.61.89a.41.41,0,0,1-.37.1.34.34,0,0,1-.14,0c-.16-.09-.3-.39-.44-.91a1.35,1.35,0,0,0-.24-.6.51.51,0,0,0-.25-.1.4.4,0,0,0-.42.18,4.83,4.83,0,0,0-.27,1.25l-.19,1.12-.14.13a.4.4,0,0,1-.27.13c-.06,0-.45,0-1.17-.08l-.78-.08a.8.8,0,0,1-.36-.12l0,0a.51.51,0,0,1-.14-.4c0-.29.05-1.53.19-3.73,0-.08,0-.13,0-.17.14-2.08.27-4.12.38-6.1.08-1.15.13-1.82.15-2a.7.7,0,0,1,.09-.28.44.44,0,0,1,.36-.24c.15,0,.64,0,1.47,0l1.75.12a.52.52,0,0,1,.3.12,1,1,0,0,1,.17.47c0,.24.12,1,.25,2.36.15,1.51.24,2.3.27,2.39a.47.47,0,0,0,.38.28.41.41,0,0,0,.39-.15s.39-.79,1.16-2.32,1.15-2.31,1.15-2.33a.48.48,0,0,1,.22-.15.5.5,0,0,1,.28,0c.12,0,.56.11,1.32.29l1.73.41a.54.54,0,0,1,.31.23A.62.62,0,0,1,472.7,382.84Z" transform="translate(-375 -138)"/></svg>