<svg id="Layer_2" data-name="Layer 2" xmlns="http://www.w3.org/2000/svg" viewBox="0 0 54.64 54.65"><defs><style>.cls-1{fill:#fff;}</style></defs><title>tik tok icono</title><path class="cls-1" d="M-291.75,190.57l-12.5,0a13.62,13.62,0,0,1-13.31-9.42,15.3,15.3,0,0,1-.73-4.71c0-8.14,0-16.41,0-24.41v-1.93a13.68,13.68,0,0,1,9.41-13.39,15.3,15.3,0,0,1,4.71-.73c8.6-.05,17,0,26.4,0a13.85,13.85,0,0,1,13.35,9.35,14.24,14.24,0,0,1,.75,4.89v26.21a13.76,13.76,0,0,1-2.59,8.39,13.72,13.72,0,0,1-11.45,5.78Zm1.67-49.65c-4.76,0-9.4,0-14.09,0a10.2,10.2,0,0,0-3.14.47,8.71,8.71,0,0,0-6,8.65V152c0,8,0,16.26,0,24.38a10.43,10.43,0,0,0,.47,3.15,8.67,8.67,0,0,0,8.59,6q13.25,0,26.49,0a8.67,8.67,0,0,0,7.43-3.74,8.75,8.75,0,0,0,1.62-5.43V150.17a9.52,9.52,0,0,0-.46-3.21,8.74,8.74,0,0,0-8.65-6Z" transform="translate(318.33 -135.92)"/><path class="cls-1" d="M-284.41,146.44a8,8,0,0,0,6.39,7.83c.51.09,1,.13,1.56.2v5.69a13.11,13.11,0,0,1-4.17-.64,13.93,13.93,0,0,1-3.79-1.91v.45c0,3.71,0,7.42,0,11.13a10.29,10.29,0,0,1-5.85,9.54,10.56,10.56,0,0,1-14.86-6.44,10.56,10.56,0,0,1,7.37-13.21,10.26,10.26,0,0,1,3.94-.31c.16,0,.26.06.26.25,0,1.84,0,3.68,0,5.52a.54.54,0,0,1,0,.1c-.26,0-.51-.1-.76-.13a4.82,4.82,0,0,0-5.43,4.19,4.85,4.85,0,0,0,4.13,5.36,4.81,4.81,0,0,0,5.49-4.81q0-11.19,0-22.39c0-.14,0-.28,0-.42Z" transform="translate(318.33 -135.92)"/></svg>