<svg id="Layer_1" data-name="Layer 1" xmlns="http://www.w3.org/2000/svg" viewBox="0 0 94.97 95.06"><defs><style>.cls-1{fill:#262223;}</style></defs><title>icono arena</title><path class="cls-1" d="M324.72,478.06H292.63c-3.66,0-5-1-6.15-4.46-.53-1.61-1-3.23-1.63-4.82a1.72,1.72,0,0,0-1-1c-4.86-1.26-7.25-4.93-6.36-9.81q3.78-20.61,7.55-41.21c1.58-8.67,3.1-17.34,4.68-26,.94-5.16,4.09-7.75,9.4-7.76h37.95c4.54,0,9.08,0,13.63,0,4.28,0,7.67,2.22,8.67,5.76.59,2.07.89,4.22,1.28,6.34q2.93,15.94,5.82,31.87,2.82,15.5,5.62,31c.89,5-1.54,8.64-6.37,9.8a1.5,1.5,0,0,0-.89.87c-.66,1.79-1.24,3.6-1.84,5.41-1,2.89-2.52,4-5.59,4Zm36.91-10.18h-17.1c-.42,0-1,.12-1.25-.08a3.42,3.42,0,0,1-1.3-1.46c-.25-.83.33-1.47,1.19-1.65a9.15,9.15,0,0,1,1.89-.13H364.3A4.36,4.36,0,0,0,369,459.6a43.53,43.53,0,0,0-.75-4.5q-3.18-17.5-6.35-35-2.22-12.25-4.41-24.52c-.32-1.75-.64-3.5-1-5.25-.51-2.5-2.65-4-5.88-4H301.66c-1.35,0-2.72,0-4.07.08a5,5,0,0,0-4.33,3.76c-.21.91-.37,1.83-.53,2.74q-2.87,15.82-5.72,31.65-3.11,17.07-6.23,34.13c-.35,2,0,3.85,1.79,4.93a6.78,6.78,0,0,0,3.34.86q24.85.08,49.69,0c.54,0,12-.08,12.38.2s-.67,2.67-1.2,3.05c-.29.21-10.61.09-11,.09H289.38c-.4,0-.8.05-1.28.08l.74,2.2c.24.72.5,1.44.73,2.17.78,2.4.78,2.41,3.29,2.41H326c10.53,0,21.06,0,31.59,0a2.1,2.1,0,0,0,2.33-1.67C360.39,471.43,361,469.8,361.63,467.88Z" transform="translate(-277.36 -383)"/><path class="cls-1" d="M324.87,461.1H286.66c-2.22,0-2.72-.61-2.35-2.75q3.6-20.6,7.19-41.17,2.19-12.58,4.39-25.16c.32-1.84.73-2.18,2.62-2.18h52.87c1.67,0,2.08.31,2.37,2q2.37,13.51,4.72,27,2.46,14,4.93,28,1.05,6,2.11,11.89c.27,1.54-.45,2.31-2.17,2.31H324.87Zm-.1-3.28c8.78,0,17.57,0,26.36,0a3.14,3.14,0,0,0,3-1.53,11.93,11.93,0,0,0,1.19-2.5,3.48,3.48,0,0,0-1.85-4.28c-1.53-.81-1.72-1.67-.66-3,1.33-1.69,1.33-3.28-.1-4.8a1.83,1.83,0,0,1-.15-2.78,4.92,4.92,0,0,0-.64-7.15,1.94,1.94,0,0,1-.47-2.7c1.12-2,.81-3.45-1.06-4.83a1.81,1.81,0,0,1-.65-2.53c1.17-2.45.76-4.11-1.35-5.8-1.1-.87-1.18-1.67-.29-2.8,1.05-1.34.55-2.72-1.12-3a1.76,1.76,0,0,1-1.69-2c0-.38,0-.76,0-1.15a3.36,3.36,0,0,0-2-3.37,3.18,3.18,0,0,0-3.84.76,1.84,1.84,0,0,1-2.8.12,5,5,0,0,0-5.59-.62c-1.57.75-2.34.39-2.82-1.28a3.42,3.42,0,0,0-6.66-.11c-.58,1.86-1.24,2.16-3,1.34a4.85,4.85,0,0,0-5.07.38c-1.79,1.2-1.78,1.2-3.47-.11a3.22,3.22,0,0,0-3.57-.47,3.29,3.29,0,0,0-2,3c0,.55,0,1.1,0,1.66a1.71,1.71,0,0,1-1.59,1.81c-1.84.34-2.28,1.58-1.12,3.09a1.68,1.68,0,0,1-.31,2.64c-2.26,1.85-2.59,3.25-1.37,6a1.74,1.74,0,0,1-.62,2.33c-2,1.53-2.26,2.76-1.08,5a1.7,1.7,0,0,1-.31,2.28c-2.62,2.46-2.83,4.71-.73,7.6a1.75,1.75,0,0,1-.08,2.42c-1.68,2-1.71,3.14-.17,5.16a1.63,1.63,0,0,1-.53,2.73c-2,1.17-2.65,2.5-2.11,4.49.74,2.73,2.06,3.92,4.39,3.92Zm37.15-.08-.86-5-5.22-29.9q-2.49-14.28-5-28.55c-.15-.85-.42-1.22-1.36-1.22q-24.64,0-49.3,0c-.93,0-1.25.33-1.38,1.19-.35,2.27-.76,4.52-1.16,6.77q-2.51,14.26-5,28.54-1.84,10.51-3.67,21c-.41,2.32-.79,4.65-1.19,7.08h4.6c-.19-.45-.32-.75-.46-1.05-1.45-3.15-1.5-6.13,1-8.85a1.43,1.43,0,0,0,.13-1.21,7.33,7.33,0,0,1,.37-5.68,2,2,0,0,0,.07-1.48,8.67,8.67,0,0,1,.85-8.92,1.81,1.81,0,0,0,.25-1.34,7,7,0,0,1,1.27-6.36,2.07,2.07,0,0,0,.36-1.46,7.88,7.88,0,0,1,1.46-6.61,1.79,1.79,0,0,0,.24-1.34,5.23,5.23,0,0,1,2.45-6,1.94,1.94,0,0,0,.76-1.25,6.77,6.77,0,0,1,10-5.28,1.94,1.94,0,0,0,1.46,0,9,9,0,0,1,5.33-.74,1.66,1.66,0,0,0,1.32-.55c3.1-4,8.17-4,11.25,0a1.62,1.62,0,0,0,1.32.54,9,9,0,0,1,5.21.68,2.15,2.15,0,0,0,1.58,0,6.74,6.74,0,0,1,10,5.45,1.65,1.65,0,0,0,.66,1.05,5.17,5.17,0,0,1,2.52,6.08,1.87,1.87,0,0,0,.26,1.33,8,8,0,0,1,1.49,6.49,2.49,2.49,0,0,0,.4,1.68,7.06,7.06,0,0,1,1.27,6,2.39,2.39,0,0,0,.26,1.68,8.77,8.77,0,0,1,.7,8.94,1.47,1.47,0,0,0,0,1.13,7.16,7.16,0,0,1,.44,6,1.3,1.3,0,0,0,.18,1.09c2.48,2.67,2.45,5.62,1.07,8.74-.17.37-.32.74-.52,1.18Z" transform="translate(-277.36 -383)"/><path class="cls-1" d="M313.18,434c.78.16,1.55.37,2.34.47a7,7,0,0,0,1.44-.06c.71-.07,1.41-.21,2.12-.24a1.17,1.17,0,0,1,1.32,1.35,2.63,2.63,0,0,1-1,1.65,6.23,6.23,0,0,1-2.32.89,3.32,3.32,0,0,1-1.82-.16,5.11,5.11,0,0,0-6.8,7c.68,1.44.43,2.13-1.06,2.77a1.67,1.67,0,0,0-1.2,1.86,1.63,1.63,0,0,0,1.61,1.5c1.1.11,1.74.68,1.69,1.81s-.87,1.55-2.14,1.44a5,5,0,0,1-3.22-8.29,1.82,1.82,0,0,0,.58-1.87A8.44,8.44,0,0,1,313.18,434Z" transform="translate(-277.36 -383)"/><path class="cls-1" d="M335.28,422.37a9.54,9.54,0,0,0,1.69-.85,5.09,5.09,0,0,1,8.15,3c.25,1.22-.17,2.18-1,2.41-1.18.31-1.68-.16-2.23-1.61-.23-.62-.86-1.47-1.37-1.51a2.68,2.68,0,0,0-2,1,2,2,0,0,1-2.31.81c-2.2-.58-4.15.49-4.52,2.46A3.56,3.56,0,0,0,335,432.4c1.41.23,1.86.81,1.55,2-.26,1-1,1.26-1.94,1.19a6.71,6.71,0,0,1-6.24-6.9A6.35,6.35,0,0,1,335.28,422.37Z" transform="translate(-277.36 -383)"/><path class="cls-1" d="M314.74,410.23a6.71,6.71,0,0,1,6.63,6.65,6.64,6.64,0,0,1-6.2,6.8c-1.31.07-2-.43-2.11-1.46s.53-1.67,1.81-1.81a3.35,3.35,0,0,0,3.18-3.57,3.42,3.42,0,0,0-3.23-3.31,3.45,3.45,0,0,0-3.56,3.09c0,.17-.05.34-.08.51a1.54,1.54,0,0,1-1.88,1.43c-1-.14-1.36-.88-1.35-1.84A6.7,6.7,0,0,1,314.74,410.23Z" transform="translate(-277.36 -383)"/><path class="cls-1" d="M336.76,440.81a5.05,5.05,0,0,1,.56,10.07c-1.18.13-2.11-.43-2.2-1.39-.1-1.13.49-1.71,1.6-1.87a1.71,1.71,0,0,0,1.7-2,1.54,1.54,0,0,0-1.59-1.52c-1.14,0-1.73.66-1.85,1.82a1.54,1.54,0,0,1-1.85,1.48c-1-.11-1.4-.81-1.41-1.78A5,5,0,0,1,336.76,440.81Z" transform="translate(-277.36 -383)"/><path class="cls-1" d="M313.59,450.91c-1.47,0-2.21-.57-2.24-1.55,0-1.16.62-1.64,1.73-1.74a5.29,5.29,0,0,0,4.87-3.83,2.6,2.6,0,0,1,1.43-1.39,2.85,2.85,0,0,0,2.14-2.39c.23-1.26.94-1.9,1.88-1.75a1.9,1.9,0,0,1,1.38,2.36,6.18,6.18,0,0,1-2.85,4.31,5.08,5.08,0,0,0-1.59,1.64A8.55,8.55,0,0,1,313.59,450.91Z" transform="translate(-277.36 -383)"/><path class="cls-1" d="M328.16,418.84a1.54,1.54,0,0,1-1.6,1.47,1.61,1.61,0,0,1-1.65-1.7,1.53,1.53,0,0,1,1.66-1.55A1.61,1.61,0,0,1,328.16,418.84Z" transform="translate(-277.36 -383)"/><path class="cls-1" d="M306.4,427.26a1.53,1.53,0,0,1,1.37,1.74,1.63,1.63,0,0,1-1.81,1.52,1.67,1.67,0,0,1-1.43-1.89A1.59,1.59,0,0,1,306.4,427.26Z" transform="translate(-277.36 -383)"/><path class="cls-1" d="M326.51,450.91a1.67,1.67,0,0,1-1.6-1.75,1.63,1.63,0,0,1,3.25.06A1.63,1.63,0,0,1,326.51,450.91Z" transform="translate(-277.36 -383)"/><path class="cls-1" d="M347.14,451a1.54,1.54,0,0,1,1.4,1.63,1.63,1.63,0,0,1-3.25,0A1.69,1.69,0,0,1,347.14,451Z" transform="translate(-277.36 -383)"/><path class="cls-1" d="M330.13,410.24a1.62,1.62,0,0,1,1.47,1.61,1.58,1.58,0,0,1-1.68,1.64,1.54,1.54,0,0,1-1.62-1.57A1.69,1.69,0,0,1,330.13,410.24Z" transform="translate(-277.36 -383)"/><path class="cls-1" d="M345.17,435.88a1.56,1.56,0,0,1-1.65,1.36,1.59,1.59,0,1,1,.09-3.17A1.64,1.64,0,0,1,345.17,435.88Z" transform="translate(-277.36 -383)"/></svg>