<svg id="Layer_1" data-name="Layer 1" xmlns="http://www.w3.org/2000/svg" viewBox="0 0 113 62.98"><defs><style>.cls-1{fill:#262223;}</style></defs><title>icono cama</title><path class="cls-1" d="M289.65,268.8a2,2,0,0,0-.21-.2,1.48,1.48,0,0,1-.18-.19c-2.07-5.41-5.88-8-11.65-8H188.82c-5.6,0-9.58,2.75-11.5,7.93a1.25,1.25,0,0,1-.23.29,2.2,2.2,0,0,0-.2.23l-.11.14v53.12l.21.15a6.58,6.58,0,0,0,4,1.11c.51,0,1,0,1.51,0l1.49-.05q15,.06,30,0h38q15.45,0,30.91,0h0c.43,0,.86,0,1.29,0,1.76.08,3.6.17,5.27-1.06l.21-.15V268.94Zm-91.89,37h71.12c2.44,0,3.43-1,3.44-3.38V289.92c0-1.79,0-3.59,0-5.38,0-4.23,0-8.46,0-12.69a6.07,6.07,0,0,1,2.89-5.18,5.91,5.91,0,0,1,5.76-.23c2.27,1.14,3.37,3.08,3.37,5.93,0,16.4,0,31,0,44.54a1.34,1.34,0,0,1-.14.78,1.27,1.27,0,0,1-.79.15h0c-7.8,0-15.69,0-23.5,0H183.05a7.75,7.75,0,0,1-.82,0l0-37.32v-2.57c0-2,0-4,0-6.05a6,6,0,0,1,5.27-5.95,6.11,6.11,0,0,1,4.76,1.48,6.4,6.4,0,0,1,2,4.82c0,6.95,0,13.9,0,20.85v9.27C194.23,304.89,195.15,305.81,197.76,305.82Zm69.15-6.13c0,.43-.05.55-.09.59s-.3.09-.7.11q-15.83,0-31.66,0H199.67V299c0-1.83,0-3.56.05-5.3a1.79,1.79,0,0,1,.69-.71A56.78,56.78,0,0,1,220.62,284c16.13-3.52,31.41-.54,45.43,8.85a1.57,1.57,0,0,1,.86,1.57C266.82,296.22,266.83,298,266.91,299.69Zm-.08-25c0,.37,0,.75,0,1.13v11a63.28,63.28,0,0,0-33.5-9.73h-.06a63.26,63.26,0,0,0-33.55,9.73c0-.13,0-.26,0-.38v-3.21c0-2.82,0-5.73,0-8.6s.08-5.88-1.67-8.8h70.43C266.76,268.71,266.8,271.75,266.83,274.71Z" transform="translate(-176.78 -260.37)"/></svg>