<svg id="Layer_1" data-name="Layer 1" xmlns="http://www.w3.org/2000/svg" viewBox="0 0 96.73 81"><defs><style>.cls-1{fill:#262223;}</style></defs><title>icono kennel</title><path class="cls-1" d="M443.17,473.1c-.16-.17-.32-.35-.47-.53a10.77,10.77,0,0,0-1.44-1.42l-.08-.07V471q0-4.26,0-8.52V459.4c0-4.69-1.62-6.44-6.28-6.58a14.54,14.54,0,0,0-1.32-3.33c-2.4-4-6.12-6.08-11.06-6.09H408.3v-.58c0-1.42,0-2.8,0-4.19,0-3.5-2.14-5.6-5.61-5.62-5,0-10,0-15.05,0a5.24,5.24,0,0,0-5.54,5.5c0,1.08,0,2.16,0,3.25v1.62h-4.36q-5.09,0-10.17,0a12.27,12.27,0,0,0-12,9c0,.15-.07.28-.09.4H355c-3.81,0-5.82,2.08-5.82,5.92v3c0,3,0,6.09,0,9.13v.23c-.42.45-.86.88-1.32,1.32l-1.06,1.05v10.45l.37.42a2.85,2.85,0,0,1,.25.33,3.81,3.81,0,0,0,1.31,1.23c.41.21.48.33.46,1.53v.27c0,2.67,0,5.33,0,8v2.9c0,4,2,6,6.05,6h.11l.27.66a20.14,20.14,0,0,0,1.61,3.26A11.71,11.71,0,0,0,366.7,514c.74,0,1.47,0,2.18,0H384q19,0,38.05,0h0a13.21,13.21,0,0,0,8-2.25,12,12,0,0,0,4.88-7.12h.94a5.26,5.26,0,0,0,5.31-5.41c0-4.08,0-8.26,0-12.77,0-.05,0-.09,0-.11h0a4.5,4.5,0,0,0,1.17-1.12,3.17,3.17,0,0,1,.28-.34,2.5,2.5,0,0,1,.24-.22l.68-.6V473.52Zm-55.28-32.71c0-.53,0-1.07,0-1.61q7.31,0,14.62,0v1.81c0,.92,0,1.84,0,2.8-1.75,0-3.49,0-5.23,0h-4.23c-1.73,0-3.45,0-5.18,0C387.91,442.39,387.9,441.38,387.89,440.39Zm-27,25.73v-9.91c0-4.24,2.71-7,6.9-7q27.41,0,54.81,0a6.51,6.51,0,0,1,6.93,6.87q0,3.8,0,7.61,0,3.21,0,6.42c-1.47,0-2.95,0-4.43,0h-3.58A3.43,3.43,0,0,0,418,472l-.05,0v2.12h0v.34h.3v.37l.19.12c.41.24.83.48,1.23.74,0,.88,0,1.75,0,2.62v2.91h-2.83v.05h-8.45v0q-13.14,0-26.29,0v0H374.7v-.05h-3.85c0-1,0-1.91,0-2.86s0-1.69,0-2.53a1.51,1.51,0,0,0,.59-.38l.25-.23c.54-.49,1.36-1.24,1-2.3l-.06-.22a3.06,3.06,0,0,0-2.61-2.59c-.41,0-.82-.07-1.22-.07h-7.94Zm-3.12,15.24H352.7c0-1.69,0-3.5,0-5.33h7.73v0h.34c1.31,0,2.67,0,4,0,0,1.82,0,3.62,0,5.37Zm71.73,20.19a6.3,6.3,0,0,1-4.89,6.38,9,9,0,0,1-2.1.22H368c-3.57,0-6-1.72-6.83-4.83a8,8,0,0,1-.25-2.17c0-2.14,0-4.28,0-6.42,0-2.48,0-4.95,0-7.43q27,0,53.94,0H429.5V491C429.52,494.49,429.53,498.05,429.48,501.55Zm8.2-20.18H425.61c0-1.65,0-3.4,0-5.34,3.71,0,7.68,0,12.09,0,0,1.1,0,2.2,0,3.3Z" transform="translate(-346.83 -433)"/><path class="cls-1" d="M369.67,451.77h0a2.89,2.89,0,0,0-2.85,3.1c0,1.17,0,2.34,0,3.51v3c0,1.21,0,2.42,0,3.63a2.9,2.9,0,0,0,2.85,3.1h0a2.91,2.91,0,0,0,2-.8,3.16,3.16,0,0,0,.89-2.26c0-3.4,0-6.84,0-10.2A2.9,2.9,0,0,0,369.67,451.77Z" transform="translate(-346.83 -433)"/><path class="cls-1" d="M409.94,452.54a2.79,2.79,0,0,0-2-.78,2.92,2.92,0,0,0-2.86,3.21c0,1.17,0,2.33,0,3.5v2.93c0,1.17,0,2.34,0,3.5a3,3,0,0,0,2.86,3.22H408a2.8,2.8,0,0,0,2-.8,3.3,3.3,0,0,0,.94-2.38c0-3.57,0-6.85,0-10A3.26,3.26,0,0,0,409.94,452.54Z" transform="translate(-346.83 -433)"/><path class="cls-1" d="M385.35,458.43c0-1.25,0-2.5,0-3.74a3.08,3.08,0,0,0-1-2.22,2.77,2.77,0,0,0-2.08-.7,2.89,2.89,0,0,0-2.74,2.82c0,.21,0,.41,0,.62v2.35c0,2.41,0,4.83,0,7.24a3,3,0,0,0,2.89,3.3h0a2.75,2.75,0,0,0,1.94-.77,3.45,3.45,0,0,0,1-2.51c0-1.14,0-2.27,0-3.41v-3Z" transform="translate(-346.83 -433)"/><path class="cls-1" d="M423.59,458.37c0-1.25,0-2.5,0-3.75a2.87,2.87,0,0,0-5.71-.39,4.94,4.94,0,0,0-.09.95v1.9c0,2.57,0,5.14,0,7.71a3.36,3.36,0,0,0,1.38,2.88,2.66,2.66,0,0,0,1.49.45,3,3,0,0,0,1.15-.24,2.93,2.93,0,0,0,1.8-2.94v-6.57Z" transform="translate(-346.83 -433)"/><path class="cls-1" d="M398.08,455c0-2.32-1.51-3.2-2.79-3.24a2.88,2.88,0,0,0-2.05.76,3.3,3.3,0,0,0-.94,2.49q0,4.94,0,9.89a3,3,0,0,0,2.88,3.22h0a2.71,2.71,0,0,0,1.92-.77,3.39,3.39,0,0,0,.95-2.43c0-1.17,0-2.33,0-3.5V458.5C398.09,457.33,398.1,456.17,398.08,455Z" transform="translate(-346.83 -433)"/></svg>