<svg id="Layer_2" data-name="Layer 2" xmlns="http://www.w3.org/2000/svg" viewBox="0 0 109.59 121.06"><defs><style>.cls-1{fill:#5b5b5b;}</style></defs><title>lupa no encontrado</title><path class="cls-1" d="M-231.93,230.56l-22.27-28.24a45.63,45.63,0,0,0,5.57-32.64A45.91,45.91,0,0,0-302.78,134a45.91,45.91,0,0,0-35.66,54.15,45.89,45.89,0,0,0,54.15,35.65,45.22,45.22,0,0,0,5.34-1.47l22,27.93c2.34,3,6.18,4.32,10.53,3.72l1-.18a20.32,20.32,0,0,0,8.37-4C-229.9,244.18-227.71,235.91-231.93,230.56Zm-94-45a33.16,33.16,0,0,1,25.75-39.11,33.14,33.14,0,0,1,39.1,25.76,33.14,33.14,0,0,1-25.75,39.1A33.14,33.14,0,0,1-326,185.6Zm81,54.2a8.11,8.11,0,0,1-2.86,1.51l-19.56-24.79a45.58,45.58,0,0,0,4.93-4l19.63,24.87A8.32,8.32,0,0,1-244.91,239.8Z" transform="translate(339.38 -133.08)"/><path class="cls-1" d="M-308.5,197a4.44,4.44,0,0,1-2.34-.66,4.49,4.49,0,0,1-1.5-6.18c.26-.42,6.42-10.34,17.07-11.47,7.11-.76,14.2,2.51,21,9.71a4.49,4.49,0,0,1-.16,6.36,4.5,4.5,0,0,1-6.36-.16c-4.81-5.06-9.37-7.41-13.56-7-6.18.65-10.3,7.14-10.34,7.2A4.5,4.5,0,0,1-308.5,197Z" transform="translate(339.38 -133.08)"/><circle class="cls-1" cx="33.88" cy="33.42" r="5.5"/><circle class="cls-1" cx="54.88" cy="33.42" r="5.5"/></svg>