<svg id="Layer_2" data-name="Layer 2" xmlns="http://www.w3.org/2000/svg" viewBox="0 0 281.55 162.78"><defs><style>.cls-1{fill:#fff;}</style></defs><title>madagaskar logo blanco</title><path class="cls-1" d="M-280,388.1l3.16-.21a1.14,1.14,0,0,1,.57.13,1.48,1.48,0,0,1,.42.67c.13.35.49,1.5,1.07,3.47.65,2.23,1,3.41,1.11,3.53a.88.88,0,0,0,.74.33.77.77,0,0,0,.67-.31s.49-1.26,1.47-3.73,1.46-3.71,1.46-3.72A.94.94,0,0,1-269,388a1.21,1.21,0,0,1,.49-.08c.22,0,1,.06,2.45.16,1.86.12,2.94.2,3.21.24a1.23,1.23,0,0,1,.62.27.85.85,0,0,1,.2.6c0,.39-.09,1.52-.28,3.39q-.1,1.26-.85,8.95-.57,5.89-.67,6.15a1,1,0,0,1-.33.36,1.34,1.34,0,0,1-.62.1l-1.64-.05a15.76,15.76,0,0,1-2.06-.17.81.81,0,0,1-.57-.45,10.9,10.9,0,0,1-.13-2.41v-2.14l-.25-.26a.82.82,0,0,0-.52-.31h-.15a.77.77,0,0,0-.58.32,9.51,9.51,0,0,0-.81,1.35c-.55,1-.83,1.45-.85,1.47a.83.83,0,0,1-.64.23.79.79,0,0,1-.26,0c-.31-.1-.65-.52-1-1.26a1.88,1.88,0,0,0-.59-.85,1.15,1.15,0,0,0-.46-.1.79.79,0,0,0-.72.36,6.55,6.55,0,0,0-.16,1.93l-.05,1.72-.21.23a.83.83,0,0,1-.46.26c-.1,0-.81.06-2.11.13l-1.41.05a1.89,1.89,0,0,1-.7-.1l-.05,0a.77.77,0,0,1-.36-.56q-.15-.65-.62-5.64c0-.12,0-.2,0-.25q-.44-4.74-.9-9.24c-.17-1.73-.26-2.75-.26-3.06a1,1,0,0,1,.08-.43.78.78,0,0,1,.58-.44C-282.42,388.31-281.53,388.22-280,388.1Z" transform="translate(399.42 -297.4)"/><path class="cls-1" d="M-256.47,388l.23-.18,1.44.05a22.87,22.87,0,0,1,3.78.28,2.17,2.17,0,0,1,.38.68c.16.37.51,1.35,1.06,2.92q.93,2.7,3,8.7t2.16,6.48a.73.73,0,0,1-.43.69,18.46,18.46,0,0,1-2.23.18c-1.43.09-2.38.13-2.84.13a.75.75,0,0,1-.46-.18.7.7,0,0,1-.29-.32c-.06-.15-.19-.51-.38-1.09a4.56,4.56,0,0,0-.62-1.42,9.35,9.35,0,0,0-2.13-.23l-1.57-.05a1.1,1.1,0,0,0-1,.33,8.78,8.78,0,0,0-.47,1.44c-.22.86-.36,1.34-.41,1.45a.66.66,0,0,1-.33.28,1.22,1.22,0,0,1-.42.05c-.29,0-.84,0-1.67-.1-1.28-.11-2-.17-2.26-.21a.92.92,0,0,1-.54-.26.63.63,0,0,1-.23-.51q0-.28,2.44-8c.19-.59.45-1.4.77-2.45q2.73-8.49,2.88-8.67Zm1.31,11.37a.89.89,0,0,0,.19.65.86.86,0,0,0,.63.2h.15a1,1,0,0,0,.7-.26.86.86,0,0,0,.2-.57,2.27,2.27,0,0,0-.15-.69c-.17-.46-.44-.7-.8-.7a.85.85,0,0,0-.46.16A1.51,1.51,0,0,0-255.16,399.37Z" transform="translate(399.42 -297.4)"/><path class="cls-1" d="M-240.75,387.93l.21,0h1.62a12,12,0,0,1,5.35,1.16,7.93,7.93,0,0,1,4.22,4.89,9.73,9.73,0,0,1,.43,2.83,8.65,8.65,0,0,1-.43,2.75,11,11,0,0,1-1.38,2.68,13,13,0,0,1-2.1,2.36,14.52,14.52,0,0,1-4.36,2.55,13.75,13.75,0,0,1-4.87,1A4.62,4.62,0,0,1-243,408a.64.64,0,0,1-.36-.33c0-.07-.24-3.18-.61-9.33-.3-5.13-.44-8.05-.44-8.77,0-.54.07-.85.2-1a5.92,5.92,0,0,1,1.34-.37C-242.09,388.12-241.38,388-240.75,387.93Zm4.81,10.27a3.43,3.43,0,0,0-.6-2.05,2.26,2.26,0,0,0-1.69-.94.86.86,0,0,0-.67.23l-.28.26,0,2.83v1.8a3.29,3.29,0,0,0,.13,1.21.7.7,0,0,0,.59.31,1.08,1.08,0,0,0,.52-.13,3.24,3.24,0,0,0,1.43-1.4A4.22,4.22,0,0,0-235.94,398.2Z" transform="translate(399.42 -297.4)"/><path class="cls-1" d="M-224.61,388l.24-.18,1.44.05a23,23,0,0,1,3.78.28,2.17,2.17,0,0,1,.38.68c.16.37.51,1.35,1.06,2.92.61,1.8,1.63,4.7,3,8.7s2.16,6.24,2.16,6.48a.73.73,0,0,1-.43.69,18.74,18.74,0,0,1-2.23.18c-1.43.09-2.38.13-2.84.13a.72.72,0,0,1-.46-.18.7.7,0,0,1-.29-.32c-.07-.15-.19-.51-.38-1.09a4.56,4.56,0,0,0-.62-1.42,9.39,9.39,0,0,0-2.14-.23l-1.56-.05a1.13,1.13,0,0,0-1,.33,9.07,9.07,0,0,0-.46,1.44c-.22.86-.36,1.34-.41,1.45a.7.7,0,0,1-.33.28,1.22,1.22,0,0,1-.42.05c-.29,0-.85,0-1.67-.1-1.28-.11-2-.17-2.26-.21a.86.86,0,0,1-.54-.26.63.63,0,0,1-.23-.51q0-.28,2.44-8c.19-.59.45-1.4.77-2.45q2.73-8.49,2.88-8.67Zm1.32,11.37a.89.89,0,0,0,.19.65.86.86,0,0,0,.63.2h.15a1,1,0,0,0,.7-.26.92.92,0,0,0,.2-.57,2.27,2.27,0,0,0-.15-.69c-.17-.46-.44-.7-.8-.7a.85.85,0,0,0-.46.16A1.47,1.47,0,0,0-223.29,399.37Z" transform="translate(399.42 -297.4)"/><path class="cls-1" d="M-206.24,388a4.3,4.3,0,0,1,.88-.08,6.85,6.85,0,0,1,2.67.54,5.8,5.8,0,0,1,3.42,3.75,2.18,2.18,0,0,1,.18.72.87.87,0,0,1-.15.47c-.16.24-.73.38-1.73.43l-1.13.06-.46-.44a2.77,2.77,0,0,0-1.93-.77,2.66,2.66,0,0,0-1,.15,2.87,2.87,0,0,0-1.21,1,4.29,4.29,0,0,0-.82,1.62,5,5,0,0,0-.13,1.41,5.61,5.61,0,0,0,.13,1.47,4.6,4.6,0,0,0,.73,1.63,3.48,3.48,0,0,0,1.19,1.12,2,2,0,0,0,1,.23,2.34,2.34,0,0,0,1-.2,1.25,1.25,0,0,0,.52-.34,1.07,1.07,0,0,0,.13-.59c0-.08,0-.32,0-.69s-.06-.69-.06-.72a1.28,1.28,0,0,1,.11-.49.66.66,0,0,1,.34-.37,2.31,2.31,0,0,1,.79-.1q.62,0,1.08,0A8.09,8.09,0,0,1-199,398a.78.78,0,0,1,.38.64c0,.33.06,1.26.06,2.81v1a10.48,10.48,0,0,1-.09,1.85,2.63,2.63,0,0,1-.6.9,8.41,8.41,0,0,1-2.31,1.8,8.81,8.81,0,0,1-2.81,1,8.66,8.66,0,0,1-1.29.1,7.34,7.34,0,0,1-3.11-.67,6.44,6.44,0,0,1-2.42-1.88,11.19,11.19,0,0,1-2.13-7.22,12,12,0,0,1,1.8-6.72A7.7,7.7,0,0,1-206.24,388Z" transform="translate(399.42 -297.4)"/><path class="cls-1" d="M-192.12,388l.23-.18,1.44.05a22.87,22.87,0,0,1,3.78.28,2.17,2.17,0,0,1,.38.68c.16.37.51,1.35,1.06,2.92q.93,2.7,3,8.7c1.44,4.08,2.17,6.24,2.17,6.48a.74.74,0,0,1-.44.69,18.46,18.46,0,0,1-2.23.18c-1.43.09-2.38.13-2.84.13a.75.75,0,0,1-.46-.18.7.7,0,0,1-.29-.32c-.06-.15-.19-.51-.38-1.09a4.56,4.56,0,0,0-.62-1.42,9.35,9.35,0,0,0-2.13-.23l-1.57-.05a1.1,1.1,0,0,0-.95.33,8.78,8.78,0,0,0-.47,1.44c-.22.86-.36,1.34-.41,1.45a.66.66,0,0,1-.33.28,1.19,1.19,0,0,1-.41.05c-.3,0-.85,0-1.68-.1-1.28-.11-2-.17-2.26-.21a.92.92,0,0,1-.54-.26.66.66,0,0,1-.23-.51q0-.28,2.44-8c.19-.59.45-1.4.77-2.45q2.73-8.49,2.88-8.67Zm1.31,11.37a.89.89,0,0,0,.19.65.86.86,0,0,0,.63.2h.15a1,1,0,0,0,.7-.26.87.87,0,0,0,.21-.57,2.34,2.34,0,0,0-.16-.69c-.17-.46-.44-.7-.8-.7a.85.85,0,0,0-.46.16A1.51,1.51,0,0,0-190.81,399.37Z" transform="translate(399.42 -297.4)"/><path class="cls-1" d="M-174.08,388a7.09,7.09,0,0,1,.77-.05,7.79,7.79,0,0,1,2,.21,6.86,6.86,0,0,1,3.44,1.93,7.79,7.79,0,0,1,.93,1.13,5.06,5.06,0,0,1,.62,1.05,1.42,1.42,0,0,1,0,.26,1.06,1.06,0,0,1-.33.77,15.65,15.65,0,0,1-1.84,1,11.21,11.21,0,0,1-1.81.81c-.31,0-.68-.25-1.11-.74a4.72,4.72,0,0,0-1.31-1.14,1.2,1.2,0,0,0-.49-.13.45.45,0,0,0-.33.13.54.54,0,0,0-.16.44,3.51,3.51,0,0,0,.72,1.78,16.42,16.42,0,0,0,1.85,2.08,26.49,26.49,0,0,1,2,2.21,6.32,6.32,0,0,1,.88,1.62,4.92,4.92,0,0,1,.23,1.55v.48a4.39,4.39,0,0,1-.41,2,4.46,4.46,0,0,1-2,2,6.37,6.37,0,0,1-3.1.74h-.33a5.72,5.72,0,0,1-5.28-3.53,3.65,3.65,0,0,1-.36-1.31.84.84,0,0,1,0-.26.86.86,0,0,1,.37-.49,7.84,7.84,0,0,1,1.2-.61,5.14,5.14,0,0,1,1.31-.47h.08a1.3,1.3,0,0,1,.95.8c.46.95,1,1.42,1.59,1.42a.79.79,0,0,0,.52-.29.74.74,0,0,0,.28-.48,1.19,1.19,0,0,0-.2-.52,3.08,3.08,0,0,0-.6-.64c-.27-.24-.94-.79-2-1.65a15.64,15.64,0,0,1-2.78-2.73,5.81,5.81,0,0,1-1.26-3.57,5,5,0,0,1,.46-2.11,6.14,6.14,0,0,1,2.14-2.39A7.91,7.91,0,0,1-174.08,388Z" transform="translate(399.42 -297.4)"/><path class="cls-1" d="M-164.68,388.09l.23-.23,2.88.05c2,0,3,.06,3.16.08a.81.81,0,0,1,.49.28l.23.23V390c0,.43.05.65.13.65a1.13,1.13,0,0,0,.21-.13c.34-.28.79-.62,1.33-1s.85-.61,1-.7a.89.89,0,0,1,.45-.12.83.83,0,0,1,.5.16c.14.11.7.62,1.66,1.51a9.88,9.88,0,0,1,1.23,1.21.75.75,0,0,1,0,.74c-.08.12-1,1.05-2.62,2.78a23.46,23.46,0,0,0-2.52,2.8c0,.07.15.23.44.47s1,.79,2.16,1.67c1.75,1.34,2.63,2,2.65,2.11a.8.8,0,0,1,.08.43,11,11,0,0,1-1.19,2.32c-.7,1.22-1.14,1.94-1.31,2.16a.88.88,0,0,1-.64.26.48.48,0,0,1-.21,0,13.53,13.53,0,0,1-1.93-1.58c-1.16-1-1.76-1.56-1.77-1.56-.21,0-.31.24-.31.7,0,.26,0,.78-.05,1.57a4.38,4.38,0,0,1-.21,1.31.9.9,0,0,1-.59.35,20,20,0,0,1-2.08.06,18.29,18.29,0,0,1-2-.06.77.77,0,0,1-.53-.4,20.84,20.84,0,0,1-.26-2.78q-.87-15.3-.87-16.28A.81.81,0,0,1-164.68,388.09Z" transform="translate(399.42 -297.4)"/><path class="cls-1" d="M-145,388l.23-.18,1.44.05a23.22,23.22,0,0,1,3.79.28,2.17,2.17,0,0,1,.38.68c.16.37.51,1.35,1.06,2.92q.92,2.7,3,8.7t2.16,6.48a.72.72,0,0,1-.44.69,18.12,18.12,0,0,1-2.22.18c-1.43.09-2.38.13-2.84.13a.77.77,0,0,1-.47-.18.68.68,0,0,1-.28-.32,10.82,10.82,0,0,1-.38-1.09,4.83,4.83,0,0,0-.62-1.42,9.39,9.39,0,0,0-2.14-.23l-1.57-.05a1.11,1.11,0,0,0-1,.33,9.07,9.07,0,0,0-.46,1.44c-.22.86-.36,1.34-.41,1.45a.72.72,0,0,1-.34.28,1.15,1.15,0,0,1-.41.05c-.29,0-.85,0-1.67-.1-1.29-.11-2-.17-2.26-.21a.86.86,0,0,1-.54-.26.64.64,0,0,1-.24-.51q0-.28,2.45-8c.19-.59.44-1.4.77-2.45q2.73-8.49,2.88-8.67Zm1.31,11.37a.89.89,0,0,0,.2.65.86.86,0,0,0,.63.2h.15a1,1,0,0,0,.7-.26.92.92,0,0,0,.2-.57,2.27,2.27,0,0,0-.15-.69c-.17-.46-.44-.7-.8-.7a.85.85,0,0,0-.46.16A1.51,1.51,0,0,0-143.67,399.37Z" transform="translate(399.42 -297.4)"/><path class="cls-1" d="M-130.54,388.14l.25-.23,1.42,0a33.09,33.09,0,0,1,5,.46,13.18,13.18,0,0,1,2.81.85,7.05,7.05,0,0,1,1.49,1,4.85,4.85,0,0,1,1,1.28,6.75,6.75,0,0,1,.7,3.24,6.38,6.38,0,0,1-.34,2.21,5.69,5.69,0,0,1-3,3,2.54,2.54,0,0,0-.68.44.61.61,0,0,0-.17.43c0,.17.22.5.67,1s.93,1,1.34,1.39a3.57,3.57,0,0,1,.77.93,1.08,1.08,0,0,1,0,.2.81.81,0,0,1-.33.54c-.23.21-.69.57-1.39,1.08a6.17,6.17,0,0,1-1.8,1.08.64.64,0,0,1-.44-.2,9,9,0,0,1-.64-.78c-.47-.63-.84-.95-1.11-.95a.81.81,0,0,0-.54.29.8.8,0,0,0-.15.56v.62l0,1-.41.41-2.55,0h-1.26a6.08,6.08,0,0,1-1.49-.1l-.1,0a.25.25,0,0,1-.09-.07l-.07-.1a.48.48,0,0,1-.06-.18q0-.11,0-.3c0-.12,0-.28,0-.47,0-.62.13-3.59.39-8.93l.46-9.57Zm5.45,4.73a.88.88,0,0,0-.33-.08.79.79,0,0,0-.52.29,4.07,4.07,0,0,0-.18,1.54l0,1.39.23.21a.71.71,0,0,0,.51.2,1.3,1.3,0,0,0,1-.59,2,2,0,0,0,.46-1.26A1.62,1.62,0,0,0-125.09,392.87Z" transform="translate(399.42 -297.4)"/><path class="cls-1" d="M-308.49,364.67a19.15,19.15,0,0,0-7.17-1.7,4.33,4.33,0,0,0-2,3.58,4.62,4.62,0,0,0,4.8,4.42,4.63,4.63,0,0,0,4.81-4.42A4.14,4.14,0,0,0-308.49,364.67Zm-4.12.82a.87.87,0,0,1-.91-.84.88.88,0,0,1,.91-.84.88.88,0,0,1,.92.84A.88.88,0,0,1-312.61,365.49Zm2.29,2.11a1.32,1.32,0,0,1-1.37-1.26,1.32,1.32,0,0,1,1.37-1.27,1.33,1.33,0,0,1,1.38,1.27A1.33,1.33,0,0,1-310.32,367.6Z" transform="translate(399.42 -297.4)"/><path class="cls-1" d="M-347.63,335.58a37.25,37.25,0,0,0,5.18-2.83,8.07,8.07,0,0,1-.64-3.37c0-1.9-1.46-2.86-3-3.88a15.12,15.12,0,0,1-1.46-1,3.29,3.29,0,0,1-1.37-2.32,5.22,5.22,0,0,0-1.08-2.41c-1.75-2.51-7.41-5-8.88-5.05a17.66,17.66,0,0,0,1.4,4.13c.27.61.52,1.2.71,1.7.64,1.71.34,5.53,0,9.22-.13,1.73-.26,3.36-.26,4.47,0,2.43.26,2.53,1.69,3.12l.54.23a16.25,16.25,0,0,1,3.63,2.53C-351,338.53-350.42,336.89-347.63,335.58Z" transform="translate(399.42 -297.4)"/><path class="cls-1" d="M-312.26,433.55c-7.62,4.9-16.73,7.69-27.1,8.29l0,.43a7.25,7.25,0,0,1,3.15,3.23.93.93,0,0,1,.59-.29c20.88-2.24,32.42-11.73,38.42-19.31a42.41,42.41,0,0,0,8.06-15.83l-.61-8.75a62.92,62.92,0,0,1-6.81,15.88A50.2,50.2,0,0,1-312.26,433.55Z" transform="translate(399.42 -297.4)"/><path class="cls-1" d="M-237.35,330.09a82.29,82.29,0,0,0-16.05,1.16c-2.2.32-4.28.63-6.56.82a37,37,0,0,1-5.57.08,4.43,4.43,0,0,0-3.63.91c-1.25.79-1.75,2.42-2.28,4.13-.61,2-1.25,4-3.12,5.23-3.61,2.31-9.77,2.33-14.32.06-6.07-3-3.58-10-2.76-12.3.93-2.6,1-7.78,1-11.55,0-1.72,0-3.2.11-4.12.29-2.86,4-5.11,6.48-6.6l1.06-.65c.93-.63,2.61-2.79,2.5-4.7-.08-1.23-.86-2.19-2.4-3-5.52-2.76-9.52-2.91-14.76-.55s-5,5.14-4.55,7.09a5.06,5.06,0,0,0,1.13,1.71c1.3,1.54,3.08,3.65,2,7.6-1.43,5.14-3.39,8.32-7.54,13.95-3.59,4.87-9.09,5.58-15.48,2-4.63-2.6-4.1-6.81-3.54-11.26.07-.54.14-1.08.2-1.64.47-4.2,3-6.17,5.27-7.91a21.19,21.19,0,0,0,2.11-1.77c2.75-2.75,3.15-4.91,1.42-7.72a6.25,6.25,0,0,0-4.48-2.54,12.85,12.85,0,0,0-10.21,3.34c-1.79,1.55-2.72,3.17-2.76,4.81a5.8,5.8,0,0,0,1.65,3.93c.53.47,2.87,2.7,2.1,4.65-.1.24-.28.73-.5,1.34-1,2.79-3.12,8.59-5.25,12.14-2.81,4.68-6,6.46-10.65,8.62-2.55,1.2-2.47,2.31-2.33,4.15a7.82,7.82,0,0,1-.29,3.53c-1.31,3.6-6.83,9.11-11.72,10.55-.87.26-1.59.46-2.2.62-2.71.76-2.74.78-3.47,2-.8,1.42-1.08,5.88-.72,11.66.32,5.16-8,17.29-13.63,20l-1.29.61c-4.87,2.28-9.9,4.63-10.36,8.27-.15,1.24-.17,2.47-.2,3.66-.06,3.2-.12,6.22-2.71,8.34-2.34,1.92-2.71,4.62-2.93,6.23,0,.33-.08.62-.13.87s-.12.5-.21.81c-.69,2.53-.74,4,1,4.58,2.06.68,5,.78,11.51-1.21a1,1,0,0,1,.8-.25,45.49,45.49,0,0,0,6.51-2.74A63,63,0,0,0-367,410.45a50.17,50.17,0,0,0,8.32-8.24,19.62,19.62,0,0,1-5.05,10,48.2,48.2,0,0,1-12.52,8.87,47.31,47.31,0,0,1-5.25,2.32,9.33,9.33,0,0,0,7.07,1.24c2.37-.69,3.5-2.28,4.94-4.31A20.76,20.76,0,0,1-364,414.6c3.74-2.51,7.43-3.4,11.34-4.34a63.15,63.15,0,0,0,6.57-1.84c1.07-.38,1.92-.7,2.6-.95,2.94-1.11,3.22-1.17,5.35-.35l1.45.54a30.64,30.64,0,0,0,14.92.46c8.3-1.77,14.72-6.76,19.08-14.81-.07-1.19-.25-2.32-.25-2.32a2.78,2.78,0,0,1,1.42-3.12c2-1.14,4.25-2.27,4.25-1.42a77.82,77.82,0,0,1-3.45,10.26.81.81,0,0,1-.44.36c-4.61,7.68-11.34,12.64-19.63,14.42a32.73,32.73,0,0,1-16-.54c-.62-.22-1.11-.4-1.5-.56a3.81,3.81,0,0,0-1.53-.42,5.64,5.64,0,0,0-1.31.37c2,1,3.84,1.21,4.06,3.55s.19,17.78-2.73,24.71c3.77.33,15.31.33,28.58-9.78a51.87,51.87,0,0,0,14.49-17c3.14-5.86,5.16-16.45,4.74-18-1.31-4.87.49-7.49,2.08-9.81a10,10,0,0,0,2.15-4.74,23.43,23.43,0,0,0,.05-4.15,7,7,0,0,1,1.88-6c1.75-2.1,1.62-5.92,1.38-8.05A21.78,21.78,0,0,1-292,363.3a1,1,0,0,1-1.13-.91c0-.54-.28-1.07,1.14-1.64,3.91-1.56,7.65-2.32,8.52-3.41,1.47-1.84,5.29-1.7,7.24-1.7a4.93,4.93,0,0,0,4.52-2.9c1.37-2.46,5.75-1.87,10.39-1.25,1.5.2,2.92.39,4.17.46,2.35.14,3.75-1.76,5.82-4.88a29.57,29.57,0,0,1,4.23-5.36c1.12-1,2.84-2.35,4.66-3.73,2.05-1.55,4.17-3.16,5.72-4.61,2.17-2,2-2.7,2-2.71S-235,330.15-237.35,330.09Zm-97.85,85a1,1,0,0,1,1.33-.94c1.38.47,3.34,1.33,3.7,2.4.57,1.71-1.71.57-4,5.4,0,0-1.42,3-1.42.92C-335.57,421.26-335.22,417.3-335.2,415.08Zm7,6.58a76.64,76.64,0,0,0-1.51,13.88,1,1,0,0,1-1,1.06l-5.29.19a1,1,0,0,1-1-1.33,31.08,31.08,0,0,0,1.59-6,1,1,0,0,1,.14-.43c.78-1.31,4.86-8,5.89-9.08S-327.62,419.67-328.18,421.66Zm-37.34-18.32a35.09,35.09,0,0,1-5.4,3.41c-2,.85-5.53-.14-4.4-2.13a4,4,0,0,0,2.13-.43c1.14-.56,1.71-1.13,4-3.12s3-2.41,2.13-3.83c0,0,1.42-1.14,2.27.28S-363.53,401.92-365.52,403.34Zm34.21-57.49c-6,3.12-9.08,8.51-11.92,14.76s1.13,8.52-6.25,11.64-13.63,10.79-18.17,16.19-9.94,7.38-7.1,4.25,12.49-12.77,14.77-20.44,2.55-7.95,6.81-10.5,13.83-14.82,14.76-19.31c1.42-6.82,8.24-2.84,8.24-2.84C-325.91,342.44-329.23,344.76-331.31,345.85Zm18.74,51.67c-.57,2-.57,4.83-2.27,6s-2.27,1.14-2.27,0a24.53,24.53,0,0,0,0-4.54s-.85-2.84,1.7-3.12S-312,395.53-312.57,397.52Zm.29-10.22c-.29,2.55-2.84,6.25-4.83,7.1s-1.42-2.84-1.42-2.84a39.09,39.09,0,0,1,.28-4.26c.29-2.27,1.71-2,3.69-2.27S-312,384.74-312.28,387.3Zm4.82,11.92c-2.55,2.56-3.44,2.88-3.12,0a9.51,9.51,0,0,0,0-3.4,2.24,2.24,0,0,1,1.14-2.27c2-1.18,3.12-2.28,4-2S-304.9,396.67-307.46,399.22Zm2.84-10.78c-.28,1.13-3.12,2-4.54,2.55s-1.14-2.84-1.14-5.11,2.27-2.84,3.69-3.69,1.71-.85,2,.28a24.54,24.54,0,0,1,.29,4A8.94,8.94,0,0,1-304.62,388.44Zm-.85-21c-.85,1.14-.57,2-2.56,2.56s-.85,2-2.27,2-5.11,1.42-10.79-4.26c0,0-1.13-1.14-2.27-.57s-.85,2-2.55,1.42c0,0-.85-.85,1.7-2.27s2.84-.85,4.26-2.27,3.41-2,6.25-1.42a24,24,0,0,1,6.81,2.27c2.65,1.2,3.47.9,4.66.11a9.39,9.39,0,0,1,1.73-1.1c-.73.4-1.26.79-1.73,1.1a1.33,1.33,0,0,0-.26.31c-.28.57,0,2-.57,1.71A1.7,1.7,0,0,0-305.47,367.42Zm7.67,15.34c-.86,1.42-4.26,2.84-4.83,2s-.57-6.81,0-7.38a8,8,0,0,1,1.7-1.13s2-1.14,2.84-.86.85,1.42.85,2S-296.95,381.34-297.8,382.76Zm-11.66,37.48c-2.51-.25-.4-1.69,0-2l.09-.08c6.42-6.05,2.9-4.92,5.08-9.61.46-1,7.21-4.48,7.38-3.4C-296.95,405.19-300.64,421.09-309.46,420.24Zm17.62-44.58c.28,2.55.85,4.83-.57,5.11s-2,.57-2.55-1.42-.86-3.69-.86-3.69-.28-2,1.42-2.27S-292.12,373.1-291.84,375.66Z" transform="translate(399.42 -297.4)"/><path class="cls-1" d="M-341.16,444.36a4,4,0,0,0-1,0c-2.63.23-5.1,3.12-5.78,7a10,10,0,0,0,.69,6,4.75,4.75,0,0,0,3.32,2.83,4.74,4.74,0,0,0,4.09-1.54,10,10,0,0,0,2.67-5.4C-336.39,448.84-338.19,444.88-341.16,444.36Zm2.47,5.21c0,.16-.12.62-.3,1.37-.07.34-.34,1.53-.81,3.59-.36,1.58-.56,2.4-.59,2.47a.55.55,0,0,1-.14.13.44.44,0,0,1-.21,0l-.56-.11a6.28,6.28,0,0,1-.69-.16.29.29,0,0,1-.16-.21,4.87,4.87,0,0,1,.1-1l.12-.87-.07-.12a.26.26,0,0,0-.16-.15h0a.25.25,0,0,0-.21.11,2.59,2.59,0,0,0-.36.5l-.37.56a.26.26,0,0,1-.23.06l-.09,0c-.1-.06-.19-.25-.28-.56s-.09-.34-.15-.38a.34.34,0,0,0-.15-.06.24.24,0,0,0-.26.11,3.08,3.08,0,0,0-.17.77l-.12.7-.08.09a.44.44,0,0,1-.17.08l-.73-.05-.48-.05a.56.56,0,0,1-.23-.08h0a.39.39,0,0,1-.09-.25c0-.18,0-.95.13-2.32v-.1c.09-1.3.17-2.56.24-3.8,0-.71.08-1.13.09-1.25a.38.38,0,0,1,.06-.18.27.27,0,0,1,.22-.15c.09,0,.4,0,.92,0l1.08.07a.33.33,0,0,1,.19.08.64.64,0,0,1,.1.29c0,.15.08.64.16,1.47s.15,1.43.17,1.48a.26.26,0,0,0,.23.17.25.25,0,0,0,.25-.09l.71-1.44.72-1.44a.28.28,0,0,1,.14-.1.31.31,0,0,1,.17,0l.82.18,1.08.26a.35.35,0,0,1,.19.14A.39.39,0,0,1-338.69,449.57Z" transform="translate(399.42 -297.4)"/></svg>