<svg id="Layer_1" data-name="Layer 1" xmlns="http://www.w3.org/2000/svg" viewBox="0 0 94.85 80.86"><defs><style>.cls-1{fill:#262223;}</style></defs><title>icono perro</title><path class="cls-1" d="M769.33,340c4.27.14,9.76-.38,15.21.58a37.45,37.45,0,0,1,30.86,36.26c.08,5-.86,9.56-4.58,13.21a15.36,15.36,0,0,1-8.26,4.16,2.54,2.54,0,0,0-2.28,2.24,32.34,32.34,0,0,1-30.12,24.34c-14.94.77-27.86-7.36-33.09-20.84a6.09,6.09,0,0,1-.55-1.71c-.23-2.85-1.94-3.81-4.55-4.47-6.26-1.58-10.11-5.79-11.08-12.16A34.46,34.46,0,0,1,723,364.26,37.35,37.35,0,0,1,757.47,340C761,340,764.58,340,769.33,340Zm-.44,5.32H758.63c-19.34,0-33.67,15.16-32.63,34.49a9.85,9.85,0,0,0,7.22,8.94c1.51.45,1.78.08,1.77-1.39-.07-6.69,0-13.38,0-20.07,0-1.28.22-2.42,1.5-3,1.93-.93,3.76.42,3.76,2.82,0,6.93,0,13.86,0,20.78a28.68,28.68,0,0,0,.46,5.4c2.44,12.93,13.47,21.83,26.74,22.26a27.48,27.48,0,0,0,28.66-28.38c-.13-4.75,0-9.52,0-14.27,0-2.11,0-4.22,0-6.33a2.41,2.41,0,0,1,2.53-2.51,2.5,2.5,0,0,1,2.67,2.55c.05.6,0,1.2,0,1.81,0,6.38,0,12.77-.05,19.15,0,1.5.48,1.5,1.61,1.17a9.86,9.86,0,0,0,7.13-9.39c0-1,0-1.93,0-2.89A32,32,0,0,0,784.61,346C779.1,344.91,773.55,345.6,768.89,345.35Z" transform="translate(-720.55 -340.01)"/><path class="cls-1" d="M768.2,394.49a12.92,12.92,0,0,1,5.3.87c2.16.9,2.75,2.35,1.91,4.49-1,2.69-4.18,4.54-7.6,4.49-3.27,0-6.36-2-7.31-4.68-.69-1.94-.17-3.26,1.7-4.15A13.52,13.52,0,0,1,768.2,394.49Z" transform="translate(-720.55 -340.01)"/></svg>