<svg id="Layer_1" data-name="Layer 1" xmlns="http://www.w3.org/2000/svg" viewBox="0 0 104.26 58.5"><defs><style>.cls-1{fill:#262223;}</style></defs><title>icono plato</title><path class="cls-1" d="M438.17,393.39,422.3,364.32c-3.34-7.7-19.73-11.82-35.25-11.82-14.93,0-30.65,3.81-34.81,10.94l-16.43,29.34a6.93,6.93,0,0,0-.69,1.24l-.15.28,0,0a5.53,5.53,0,0,0-.34,1.93c0,10.13,27,14.75,52.13,14.75s52.13-4.62,52.13-14.75A5.89,5.89,0,0,0,438.17,393.39ZM387.05,357.5c18.85,0,30.88,5.77,30.88,9.75s-12,9.75-30.88,9.75-30.88-5.77-30.88-9.75S368.2,357.5,387.05,357.5ZM386.8,406c-30.5,0-47.13-6.44-47.13-9.75a.65.65,0,0,1,0-.18l.32-.59c.16-.21,12.86-23.45,12.86-23.45,5,6.51,19.92,10,34.16,10,14.07,0,28.85-3.38,34-9.75,0,0,12.89,23.58,12.89,24C433.93,399.56,417.29,406,386.8,406Z" transform="translate(-334.67 -352.5)"/></svg>