<svg id="Layer_1" data-name="Layer 1" xmlns="http://www.w3.org/2000/svg" viewBox="0 0 80.97 81"><defs><style>.cls-1{fill:#262223;}</style></defs><title>icono snacks</title><path class="cls-1" d="M324.32,321c-.12.59-.23,1.18-.37,1.76A15.05,15.05,0,0,1,300.89,332l-.41-.23-15.33,15.33c3.81,6.32,4,12.65-.86,18.48-4.08,4.94-9.59,6.57-15.74,4.72-6.61-2-10.06-6.81-10.84-13.63-7.33-.91-12.32-4.74-13.95-12.08a14,14,0,0,1,5.45-14.87c5.8-4.44,12-4.24,18-.51l15.23-15.24a42.94,42.94,0,0,1-1.92-4.32,15,15,0,0,1,12.27-19.46,3.28,3.28,0,0,0,.51-.15h3c.2.05.4.12.61.16a14.7,14.7,0,0,1,11.92,9.4,36.81,36.81,0,0,1,1.29,4.84l-.06,0,.79.09a14.78,14.78,0,0,1,12.66,10.31,28.15,28.15,0,0,1,.77,3.2Zm-15.66-11.84-.57,0c-2.07.17-3.1-.89-3-2.95a12.75,12.75,0,0,0-.09-2.83A10.29,10.29,0,0,0,285,302.3a10.14,10.14,0,0,0,2.45,9.89c1.15,1.26,1.19,2.51.07,3.63q-9.12,9.17-18.29,18.26a2.52,2.52,0,0,1-1.81.74,4.11,4.11,0,0,1-2-1,10.12,10.12,0,0,0-8.74-2.43,10.29,10.29,0,0,0,2.85,20.37,2.66,2.66,0,0,1,3.12,3.14,10.27,10.27,0,0,0,9.44,11.3,10.32,10.32,0,0,0,8.43-17.24c-1.4-1.56-1.37-2.67.11-4.16l17.55-17.54c1.56-1.57,2.62-1.59,4.27-.11a10,10,0,0,0,6.92,2.64,10.32,10.32,0,1,0-.64-20.62Z" transform="translate(-243.35 -290)"/></svg>