<svg id="Layer_2" data-name="Layer 2" xmlns="http://www.w3.org/2000/svg" viewBox="0 0 52.55 52.2"><defs><style>.cls-1{fill:#fff;}</style></defs><title>whatsapp icono</title><path class="cls-1" d="M-309.25,208.89a26.3,26.3,0,0,1-11.34-2.63A25,25,0,0,1-322.9,205c-1.63.53-3.27,1-4.9,1.56l-1.75.55-.43.13-4.78,1.33,2.17-6.41c.55-1.63,1.09-3.23,1.65-4.81a25.21,25.21,0,0,1-4.39-16.89A25.4,25.4,0,0,1-329,165.68,26,26,0,0,1-317.4,158a25.69,25.69,0,0,1,15.25-.35A25.79,25.79,0,0,1-287,168.94,25.08,25.08,0,0,1-283,185.25a25.57,25.57,0,0,1-6.38,14.68,25.63,25.63,0,0,1-11.78,7.69A26.83,26.83,0,0,1-309.25,208.89Zm-13.51-9a4,4,0,0,1,2.15.64c.68.41,1.42.85,2.16,1.2a21.07,21.07,0,0,0,15.76,1.11,20.76,20.76,0,0,0,9.52-6.22A20.68,20.68,0,0,0-288,184.77a20.39,20.39,0,0,0-3.17-13.15,21,21,0,0,0-12.34-9.13,20.68,20.68,0,0,0-12.33.29,21,21,0,0,0-9.37,6.2,20.48,20.48,0,0,0-5.14,11.91,20.38,20.38,0,0,0,3.69,13.85,4.21,4.21,0,0,1,.53,4c-.27.77-.54,1.53-.8,2.31l2.83-.92A4.53,4.53,0,0,1-322.76,199.9Z" transform="translate(335.44 -156.69)"/><path class="cls-1" d="M-302.22,195.39a15.39,15.39,0,0,1-4.34-.85c-5.78-1.74-9.87-5.6-13.23-10.41a13.2,13.2,0,0,1-2.53-5.57,7.85,7.85,0,0,1,1.19-5.75,3.65,3.65,0,0,1,2.41-1.67c.66-.13,1.32-.26,2-.35a1.59,1.59,0,0,1,1.8.94c.81,1.8,1.57,3.61,2.31,5.44a2.12,2.12,0,0,1-.52,2.07c-.37.54-.84,1-1.24,1.53-.09.13-.17.41-.09.52a19.26,19.26,0,0,0,8.05,7,.57.57,0,0,0,.79-.19c.56-.73,1.15-1.43,1.73-2.14a1.54,1.54,0,0,1,2.05-.59c.5.18,1,.42,1.47.65l3.78,1.82a1.51,1.51,0,0,1,.88,1.45c.16,3.94-3.17,5.88-5.8,6.1Z" transform="translate(335.44 -156.69)"/></svg>